<svg xmlns="http://www.w3.org/2000/svg" width="36" height="36" viewBox="0 0 36 36"><defs><style>.a{fill:#eaeff3;}.b{fill:#fff;}.c{fill:#7f8896;}</style></defs><g transform="translate(-171 -399)"><rect class="a" width="36" height="36" rx="4" transform="translate(171 399)"/><g transform="translate(174.267 402.268)"><path class="a" d="M26.641,31.432H0l6.679-3.519a2.673,2.673,0,0,0,1.449-2.359v-2.7a14.583,14.583,0,0,1-1.683-2.618,14.337,14.337,0,0,1-1.078-2.9,2.251,2.251,0,0,1-.773-.8,2.159,2.159,0,0,1-.283-1.058v-2.95A2.17,2.17,0,0,1,5.074,10.9V6.636A5.372,5.372,0,0,1,5.129,5.21a5.824,5.824,0,0,1,.4-1.383,5.371,5.371,0,0,1,.951-1.475A6.414,6.414,0,0,1,9.012.7,10.216,10.216,0,0,1,10.966.187,15.7,15.7,0,0,1,13.471,0a15.7,15.7,0,0,1,2.5.187A10.216,10.216,0,0,1,17.931.7,6.414,6.414,0,0,1,20.46,2.352a5.371,5.371,0,0,1,.951,1.475,5.824,5.824,0,0,1,.4,1.383,5.367,5.367,0,0,1,.054,1.427V10.9a2.17,2.17,0,0,1,.763,1.635v2.95a2.139,2.139,0,0,1-.121.7,2.185,2.185,0,0,1-.333.612,2.254,2.254,0,0,1-.512.483,2.32,2.32,0,0,1-.658.312A15.98,15.98,0,0,1,18.741,22a10.76,10.76,0,0,1-.69.857v2.764a2.664,2.664,0,0,0,1.537,2.4l7.052,3.406Z" transform="translate(1.336 0.699)"/><path class="b" d="M26.624,31.479H0A26.141,26.141,0,0,1,2.634,30.12c.3-.142.538-.254.63-.3.317-.171.624-.328.921-.48.4-.205.78-.4,1.147-.609a4.351,4.351,0,0,0,.113.47.928.928,0,0,0,.662.624.971.971,0,0,0,.24.03A.952.952,0,0,0,7,29.594,12.194,12.194,0,0,0,9.38,25.207a.7.7,0,0,0,.371-.72,10.812,10.812,0,0,0-.625-2.839,1.051,1.051,0,0,0-.98-.64,1.093,1.093,0,0,0-.284.038c-.248-.616-.524-1.231-.79-1.825-.141-.314-.286-.637-.422-.951a.965.965,0,0,0-.4-.445c-.075-.231-.153-.465-.228-.692l-.054-.162c-.03-1.013-.055-2.043-.079-3.038l-.016-.659c.877-2.8,2.078-6.63,1.886-9.787a.861.861,0,0,0-.733-.847,24.449,24.449,0,0,1,3.225-1.56A.958.958,0,0,0,10.863.069C11.369.023,11.891,0,12.417,0c3.153,0,5.321.759,6.445,2.255a4.584,4.584,0,0,1,.848,2.911,5.656,5.656,0,0,1-.235,1.468V10.9a2.172,2.172,0,0,1,.763,1.634V15.48a2.213,2.213,0,0,1-1.625,2.1A15.971,15.971,0,0,1,16.346,22a10.73,10.73,0,0,1-.69.856v2.763a2.664,2.664,0,0,0,1.538,2.4l9.431,3.461Z" transform="translate(0 0.652)"/><path class="c" d="M3.195,32.056H0v-.239l.079.07a6.863,6.863,0,0,1,.648-.4l6.689-3.574A1.842,1.842,0,0,0,8.4,26.289v-2.4a15.429,15.429,0,0,1-2.616-5.3,3.05,3.05,0,0,1-.48-.48,2.993,2.993,0,0,1-.578-1.192,2.965,2.965,0,0,1-.076-.667V13.318a2.984,2.984,0,0,1,.75-1.964V7.486A6.526,6.526,0,0,1,5.7,4.9,6.617,6.617,0,0,1,6.993,2.626C8.552.883,11.076,0,14.494,0S20.437.883,22,2.626A6.615,6.615,0,0,1,23.284,4.9a6.527,6.527,0,0,1,.3,2.585v3.868a2.985,2.985,0,0,1,.75,1.964v2.938a2.96,2.96,0,0,1-.477,1.614,3.048,3.048,0,0,1-1.287,1.112,16.777,16.777,0,0,1-2.213,4.246c-.178.246-.354.474-.522.677v2.451a1.807,1.807,0,0,0,.28.972,1.86,1.86,0,0,0,.762.68l7.162,3.509a6.843,6.843,0,0,1,.772.45L28.9,31.9v.159h-3.54l-5.233-2.563a3.528,3.528,0,0,1-1.446-1.29,3.43,3.43,0,0,1-.531-1.845V23.6a.818.818,0,0,1,.21-.546,10.014,10.014,0,0,0,.623-.787A15.18,15.18,0,0,0,21.091,18.1a.838.838,0,0,1,.556-.537,1.385,1.385,0,0,0,1-1.306V13.318a1.343,1.343,0,0,0-.471-1.013.822.822,0,0,1-.279-.615V7.441a.8.8,0,0,1,.007-.109,4.981,4.981,0,0,0-1.2-3.631c-1.226-1.356-3.317-2.044-6.214-2.044s-5.005.693-6.229,2.061a4.9,4.9,0,0,0-1.18,3.614.8.8,0,0,1,.007.109V11.69a.822.822,0,0,1-.279.615,1.343,1.343,0,0,0-.471,1.013v2.938a1.36,1.36,0,0,0,.65,1.153.826.826,0,0,1,.365.511A13.646,13.646,0,0,0,9.9,23.073a.829.829,0,0,1,.2.531v2.685a3.493,3.493,0,0,1-1.865,3.078L3.195,32.056Z" transform="translate(0.293 0)"/></g></g></svg>