<svg xmlns="http://www.w3.org/2000/svg" width="24" height="24" viewBox="0 0 24 24"><defs><style>.a{fill:#9dacbf;}</style></defs><path class="a" d="M-4291.391-954.938v-2.578h-2.578a.938.938,0,0,1-.937-.937.938.938,0,0,1,.938-.937h2.578v-2.578a.938.938,0,0,1,.938-.937.938.938,0,0,1,.938.938v2.578h2.578a.938.938,0,0,1,.938.938.938.938,0,0,1-.937.938h-2.578v2.578a.938.938,0,0,1-.937.938A.938.938,0,0,1-4291.391-954.938Zm-15.764.938a2.831,2.831,0,0,1-2.205-1.049,2.846,2.846,0,0,1-.579-2.386,12.228,12.228,0,0,1,4.2-6.925,12.178,12.178,0,0,1,3.928-2.16,6.37,6.37,0,0,1-2.561-5.105A6.382,6.382,0,0,1-4298-978a6.382,6.382,0,0,1,6.375,6.375,6.369,6.369,0,0,1-2.556,5.1,12.235,12.235,0,0,1,1.411.566.937.937,0,0,1,.444,1.249.937.937,0,0,1-1.249.444,10.212,10.212,0,0,0-4.174-.991c-.083,0-.167,0-.251,0s-.166,0-.249,0a10.358,10.358,0,0,0-9.855,8.2.978.978,0,0,0,.2.821.952.952,0,0,0,.75.357h11.545a.938.938,0,0,1,.938.938.938.938,0,0,1-.937.938Zm4.655-17.625a4.506,4.506,0,0,0,4.273,4.494l.227,0,.229,0a4.506,4.506,0,0,0,4.271-4.494,4.5,4.5,0,0,0-4.5-4.5A4.5,4.5,0,0,0-4302.5-971.625Z" transform="translate(4310 978)"/></svg>