<svg xmlns="http://www.w3.org/2000/svg" width="18.667" height="16" viewBox="0 0 18.667 16"><defs><style>.a{fill:#e66767;}</style></defs><g transform="translate(-10 -11)"><path class="a" d="M26.667,27H12a2,2,0,0,1-2-2,1.9,1.9,0,0,1,.313-1.065L17.631,11.96a1.989,1.989,0,0,1,3.411.011L28.368,23.96a1.863,1.863,0,0,1,.3,1.04,2,2,0,0,1-2,2ZM19.333,12.333a.645.645,0,0,0-.557.311l-7.34,12.011a.592.592,0,0,0-.1.345.669.669,0,0,0,.667.667H26.667A.669.669,0,0,0,27.333,25a.565.565,0,0,0-.087-.32L19.9,12.655a.651.651,0,0,0-.564-.321Z" transform="translate(0)"/><path class="a" d="M17.167,20.667A.667.667,0,0,1,16.5,20V14.667a.667.667,0,1,1,1.333,0V20A.667.667,0,0,1,17.167,20.667Z" transform="translate(2.167 1)"/><circle class="a" cx="0.667" cy="0.667" r="0.667" transform="translate(18.667 23)"/></g></svg>