<svg xmlns="http://www.w3.org/2000/svg" width="32.333" height="32.333" viewBox="0 0 32.333 32.333"><defs><style>.a{fill:#4ad295;}.b{fill:#546073;}</style></defs><g transform="translate(-55 -218)"><circle class="a" cx="4.5" cy="4.5" r="4.5" transform="translate(71 237)"/><g transform="translate(7372 -1988)"><path class="a" d="M64.087,150.76l-1.193,1.193-.277-.277a.947.947,0,0,0-1.34,1.339l.947.947a.947.947,0,0,0,1.34,0l1.863-1.863a.947.947,0,1,0-1.34-1.339Z" transform="translate(-7374.147 2065.021)"/><path class="b" d="M151.947,167.876h5.684a.947.947,0,1,0,0-1.894h-5.684a.947.947,0,1,0,0,1.894Z" transform="translate(-7458.464 2050.5)"/><path class="a" d="M64.087,241.75l-1.193,1.193-.277-.277A.947.947,0,1,0,61.277,244l.947.947a.947.947,0,0,0,1.34,0l1.863-1.863a.947.947,0,1,0-1.34-1.339Z" transform="translate(-7374.147 1979.777)"/><path class="a" d="M64.087,331.33l-1.193,1.193-.277-.277a.947.947,0,1,0-1.34,1.339l.947.947a.947.947,0,0,0,1.34,0l1.863-1.863a.947.947,0,0,0-1.34-1.339Z" transform="translate(-7374.147 1895.854)"/><path class="b" d="M31.686,15.394l-2.23-.743-.743-2.23a.948.948,0,0,0-1.568-.37l-2.678,2.678a9.039,9.039,0,0,0-3.563-.71V5.746H22.8a.947.947,0,0,0,.947-.947V3.347A3.351,3.351,0,0,0,20.4,0H3.347A3.351,3.351,0,0,0,0,3.347V29.488a.947.947,0,0,0,.947.947H15.361a9.166,9.166,0,0,0,14.727-7.262,9.053,9.053,0,0,0-.71-3.534l2.678-2.677A.948.948,0,0,0,31.686,15.394ZM20.932,26.331a3.157,3.157,0,1,1,1.459-5.956L20.262,22.5a.947.947,0,0,0,1.34,1.339l2.129-2.129a3.161,3.161,0,0,1-2.8,4.616ZM20.4,1.894A1.454,1.454,0,0,1,21.85,3.347v.505H6.694a4.046,4.046,0,0,0-.332-1.957ZM1.895,3.347a1.452,1.452,0,0,1,2.9,0V4.8a.947.947,0,0,0,.947.947H19.009v8.476a9.132,9.132,0,0,0-3.962,1.943H10.483a.947.947,0,1,0,0,1.894H13.34a9.1,9.1,0,0,0-1.465,3.763H10.483a.947.947,0,1,0,0,1.894h1.308a9.1,9.1,0,0,0,1.727,4.825H1.895V3.347ZM20.932,30.435a7.262,7.262,0,1,1,2.649-14.023l.693,2.08-.5.5a5.051,5.051,0,1,0,1.34,1.34l.5-.5,2.08.693a7.269,7.269,0,0,1-6.762,9.911Zm6.85-11.878L26.107,18l-.558-1.674L27.4,14.474l.408,1.225a.947.947,0,0,0,.6.6l1.225.408Z" transform="translate(-7317 2206)"/></g></g></svg>