<svg xmlns="http://www.w3.org/2000/svg" width="24" height="24" viewBox="0 0 24 24"><defs><style>.a{fill:#2494ed;}</style></defs><path class="a" d="M7192.232-2003.457l-1.406-3.75a.71.71,0,0,1-.045-.247v-15.469a2.112,2.112,0,0,1,2.109-2.109,2.112,2.112,0,0,1,2.109,2.109v15.469a.71.71,0,0,1-.045.247l-1.406,3.75a.7.7,0,0,1-.658.456A.7.7,0,0,1,7192.232-2003.457Zm.658-2.249.392-1.044h-.783Zm-.7-2.451h1.406v-10.781h-1.406Zm0-14.766v2.578h1.406v-2.578a.7.7,0,0,0-.7-.7A.7.7,0,0,0,7192.187-2022.922ZM7173.578-2003a2.581,2.581,0,0,1-2.578-2.578v-17.437a2.581,2.581,0,0,1,2.578-2.578h1.762a2.113,2.113,0,0,1,1.988-1.406h5.625a2.113,2.113,0,0,1,1.988,1.406h1.762a2.581,2.581,0,0,1,2.578,2.578v17.438A2.581,2.581,0,0,1,7186.7-2003Zm-1.172-20.016v17.438a1.173,1.173,0,0,0,1.172,1.172H7186.7a1.173,1.173,0,0,0,1.172-1.172v-17.437a1.173,1.173,0,0,0-1.172-1.172h-1.762a2.118,2.118,0,0,1-1.285,1.285v.824a2.112,2.112,0,0,1-2.109,2.109h-2.812a2.112,2.112,0,0,1-2.109-2.109v-.824a2.118,2.118,0,0,1-1.285-1.285h-1.762A1.173,1.173,0,0,0,7172.406-2023.016Zm5.625.938a.7.7,0,0,0,.7.7h2.813a.7.7,0,0,0,.7-.7v-.7h-4.219Zm-1.406-2.812a.7.7,0,0,0,.7.7h5.625a.7.7,0,0,0,.7-.7.7.7,0,0,0-.7-.7h-5.625A.7.7,0,0,0,7176.625-2024.891Zm6.328,18.984a.7.7,0,0,1-.7-.7.7.7,0,0,1,.7-.7h2.813a.7.7,0,0,1,.7.7.7.7,0,0,1-.7.7Zm-4.219-2.812a.7.7,0,0,1-.7-.7.7.7,0,0,1,.7-.7h4.688a.7.7,0,0,1,.7.7.7.7,0,0,1-.7.7Zm-4.219,0a.7.7,0,0,1-.7-.7.7.7,0,0,1,.7-.7h1.406a.7.7,0,0,1,.7.7.7.7,0,0,1-.7.7Zm4.219-2.812a.7.7,0,0,1-.7-.7.7.7,0,0,1,.7-.7h7.031a.7.7,0,0,1,.7.7.7.7,0,0,1-.7.7Zm-4.219,0a.7.7,0,0,1-.7-.7.7.7,0,0,1,.7-.7h1.406a.7.7,0,0,1,.7.7.7.7,0,0,1-.7.7Zm4.219-2.812a.7.7,0,0,1-.7-.7.7.7,0,0,1,.7-.7h5.625a.7.7,0,0,1,.7.7.7.7,0,0,1-.7.7Zm-4.219,0a.7.7,0,0,1-.7-.7.7.7,0,0,1,.7-.7h1.406a.7.7,0,0,1,.7.7.7.7,0,0,1-.7.7Zm4.219-2.812a.7.7,0,0,1-.7-.7.7.7,0,0,1,.7-.7h7.031a.7.7,0,0,1,.7.7.7.7,0,0,1-.7.7Zm-4.219,0a.7.7,0,0,1-.7-.7.7.7,0,0,1,.7-.7h1.406a.7.7,0,0,1,.7.7.7.7,0,0,1-.7.7Z" transform="translate(-7171 2027)"/></svg>