<svg xmlns="http://www.w3.org/2000/svg" width="22" height="20" viewBox="0 0 22 20">
  <g id="text-_4_" transform="translate(-0.5 490.627)">
    <path id="Path_869" data-name="Path 869" d="M2.694-490.613a2.994,2.994,0,0,0-.839.269A2.591,2.591,0,0,0,.6-488.882l-.1.307v15.9l.1.307A2.59,2.59,0,0,0,2.354-470.7c.241.072.641.077,9.137.077s8.9,0,9.141-.077a2.592,2.592,0,0,0,1.734-1.612l.116-.315.013-7.853c.013-8.629.022-8.185-.245-8.731a2.608,2.608,0,0,0-1.488-1.288l-.344-.119-8.8,0C6.781-490.63,2.767-490.621,2.694-490.613Zm17.723,1.432a1.469,1.469,0,0,1,.594.563,1.4,1.4,0,0,1,.108.669l.017.5H1.846l.017-.5c.017-.58.077-.733.387-1.019a1.113,1.113,0,0,1,.572-.281c.047-.013,3.988-.017,8.754-.013C19.824-489.257,20.254-489.253,20.417-489.18Zm.7,9.737-.013,6.642-.095.171a1.434,1.434,0,0,1-.641.58c-.25.089-17.508.089-17.758,0a1.434,1.434,0,0,1-.641-.58l-.095-.171-.013-6.642-.009-6.638H21.127Z" fill="#546073"/>
    <path id="Path_870" data-name="Path 870" d="M87.529-319.717a.731.731,0,0,0-.4.8.776.776,0,0,0,.462.515,12.642,12.642,0,0,0,1.506.031c1.279-.013,1.346-.018,1.466-.107a.706.706,0,0,0,0-1.19c-.12-.089-.182-.093-1.51-.1A6.642,6.642,0,0,0,87.529-319.717Z" transform="translate(-82.91 -163.596)" fill="#546073"/>
    <path id="Path_871" data-name="Path 871" d="M236.744-319.8a.63.63,0,0,0-.36.4.681.681,0,0,0,.338.862c.173.089.218.089,3.927.08,3.727-.013,3.754-.013,3.878-.107a.706.706,0,0,0,0-1.191c-.124-.093-.151-.093-3.887-.107A25.383,25.383,0,0,0,236.744-319.8Z" transform="translate(-225.891 -163.503)" fill="#546073"/>
    <path id="Path_872" data-name="Path 872" d="M87.584-234.717a.609.609,0,0,0-.4.36.707.707,0,0,0,.284.906c.16.089.227.093,1.533.093,1.559,0,1.586,0,1.786-.342a.691.691,0,0,0-.258-.968c-.142-.084-.24-.089-1.462-.1A6.7,6.7,0,0,0,87.584-234.717Z" transform="translate(-82.912 -244.983)" fill="#546073"/>
    <path id="Path_873" data-name="Path 873" d="M236.789-234.692a.71.71,0,0,0-.444.386.666.666,0,0,0,.08.729c.235.28.009.267,4.1.267,4.216,0,3.949.022,4.162-.342a.691.691,0,0,0-.258-.968c-.147-.089-.24-.089-3.838-.1C238.566-234.723,236.851-234.71,236.789-234.692Z" transform="translate(-225.829 -245.031)" fill="#546073"/>
    <path id="Path_874" data-name="Path 874" d="M87.6-148.692a.874.874,0,0,0-.36.369.782.782,0,0,0,.067.7c.209.289.235.293,1.759.293,1.3,0,1.386,0,1.528-.089a.666.666,0,0,0,.351-.546.739.739,0,0,0-.293-.653c-.116-.084-.2-.089-1.541-.1C88.327-148.723,87.648-148.71,87.6-148.692Z" transform="translate(-82.98 -327.375)" fill="#546073"/>
    <path id="Path_875" data-name="Path 875" d="M236.6-148.795a.7.7,0,0,0-.329.822.824.824,0,0,0,.586.493c.107.013,1.812.022,3.789.013,3.5-.013,3.6-.018,3.749-.1a.666.666,0,0,0,.351-.546.739.739,0,0,0-.293-.653c-.116-.089-.2-.089-3.918-.1C236.872-148.879,236.73-148.875,236.6-148.795Z" transform="translate(-225.792 -327.228)" fill="#546073"/>
  </g>
</svg>
