<svg xmlns="http://www.w3.org/2000/svg" width="18" height="17.982" viewBox="0 0 18 17.982"><defs><style>.a{fill:#546073;}</style></defs><path class="a" d="M17.3,16.826h-.7V15.209a.7.7,0,0,0-1.406,0v1.617H2.813v-1.16h9.879a.7.7,0,0,0,0-1.406H2.813V13.249A3.129,3.129,0,0,0,4.461,12.3a.509.509,0,0,1,.42-.183h0a.526.526,0,0,1,.426.188,2.146,2.146,0,0,0,1.616.9h.026A2.177,2.177,0,0,0,8.585,12.3a.511.511,0,0,1,.433-.183.529.529,0,0,1,.416.188,2.146,2.146,0,0,0,1.616.9h.026a2.177,2.177,0,0,0,1.634-.907.52.52,0,0,1,.414-.183h.011a.521.521,0,0,1,.424.188,2.61,2.61,0,0,0,1.806.908H15.4a2.245,2.245,0,0,0,2.284-2.1,3.727,3.727,0,0,0-1.17-2.732A4,4,0,0,0,13.746,7.3H9.7V5.684A2.113,2.113,0,0,0,11.109,3.7a4.136,4.136,0,0,0-.8-2.023C9.944,1.066,9.587.565,9.572.544a.7.7,0,0,0-1.144,0c-.015.021-.373.522-.735,1.128a4.136,4.136,0,0,0-.8,2.023A2.113,2.113,0,0,0,8.3,5.684V7.3H4.254a3.818,3.818,0,0,0-3.9,3.814,2.019,2.019,0,0,0,1.055,1.874v3.838H.7a.7.7,0,0,0,0,1.406H17.3a.7.7,0,0,0,0-1.406ZM8.9,2.388,9,2.23l.092.151A3.7,3.7,0,0,1,9.7,3.7.7.7,0,0,1,8.3,3.7,3.655,3.655,0,0,1,8.9,2.388Zm-6.4,9.481a1.135,1.135,0,0,1-.409-.107.618.618,0,0,1-.338-.648,2.4,2.4,0,0,1,2.5-2.408h9.492a2.446,2.446,0,0,1,2.531,2.408.544.544,0,0,1-.3.493,1.343,1.343,0,0,1-.6.2h-.02a1.269,1.269,0,0,1-.73-.407,1.983,1.983,0,0,0-3-.009c-.256.3-.458.41-.561.41h-.026c-.093,0-.291-.105-.54-.4a1.937,1.937,0,0,0-1.457-.689,1.917,1.917,0,0,0-1.54.68c-.256.3-.458.41-.561.41H6.925c-.093,0-.291-.105-.54-.4a1.932,1.932,0,0,0-1.5-.689H4.88a1.922,1.922,0,0,0-1.492.68,1.7,1.7,0,0,1-.857.48Z" transform="translate(0 -0.25)"/></svg>