<svg xmlns="http://www.w3.org/2000/svg" width="16" height="17.454" viewBox="0 0 16 17.454"><defs><style>.a{fill:rgba(0,0,0,0.87);opacity:0.77;}</style></defs><path class="a" d="M-7176.728-2254.545a1.82,1.82,0,0,1-1.818-1.818v-2.234a3.118,3.118,0,0,1-1.455-2.637v-.947a2.548,2.548,0,0,1,2.545-2.545h4v-2.545a1.089,1.089,0,0,1,.386-.832,1.449,1.449,0,0,1-.386-.986,11.184,11.184,0,0,1,1.133-2.716A.431.431,0,0,1-7172-2272a.364.364,0,0,1,.321.2,11.431,11.431,0,0,1,1.132,2.713,1.449,1.449,0,0,1-.386.986,1.088,1.088,0,0,1,.386.832v2.545h4a2.548,2.548,0,0,1,2.545,2.545v.947a3.118,3.118,0,0,1-1.455,2.637v2.234a1.82,1.82,0,0,1-1.818,1.818Zm-1.091-1.818a1.092,1.092,0,0,0,1.091,1.091h9.455a1.092,1.092,0,0,0,1.091-1.091v-1.915a2.683,2.683,0,0,1-.572.093c-.052,0-.105,0-.157,0a2.881,2.881,0,0,1-2-.8,2.9,2.9,0,0,1-.544-.7,2.913,2.913,0,0,1-2.545,1.5,2.911,2.911,0,0,1-2.544-1.5,2.906,2.906,0,0,1-.545.7,2.877,2.877,0,0,1-1.993.8c-.055,0-.11,0-.165,0a2.674,2.674,0,0,1-.571-.093Zm8.727-4.727a2.163,2.163,0,0,0,.68,1.583,2.163,2.163,0,0,0,1.62.6,2.288,2.288,0,0,0,2.064-2.323v-.947a1.82,1.82,0,0,0-1.818-1.818h-10.909a1.82,1.82,0,0,0-1.818,1.818v.947a2.288,2.288,0,0,0,2.064,2.323,2.181,2.181,0,0,0,1.62-.6,2.165,2.165,0,0,0,.68-1.583.364.364,0,0,1,.364-.364.364.364,0,0,1,.364.364,2.185,2.185,0,0,0,2.182,2.182,2.185,2.185,0,0,0,2.182-2.182.363.363,0,0,1,.363-.364A.364.364,0,0,1-7169.092-2261.09Zm-2.182-3.636v-2.545a.364.364,0,0,0-.364-.364h-.728a.364.364,0,0,0-.363.364v2.545Zm-.728-3.636a.728.728,0,0,0,.728-.726,9.3,9.3,0,0,0-.729-1.745,8.615,8.615,0,0,0-.725,1.745A.727.727,0,0,0-7172-2268.363Z" transform="translate(7180.001 2271.999)"/></svg>