<svg xmlns="http://www.w3.org/2000/svg" width="18" height="18" viewBox="0 0 18 18"><defs><style>.a{fill:#546073;}</style></defs><path class="a" d="M-5750.188,18A2.816,2.816,0,0,1-5753,15.187V4.219a2.816,2.816,0,0,1,2.813-2.813h.879V.7a.7.7,0,0,1,.7-.7.7.7,0,0,1,.7.7v.7h3.164V.7a.7.7,0,0,1,.7-.7.7.7,0,0,1,.7.7v.7h3.2V.7a.7.7,0,0,1,.7-.7.7.7,0,0,1,.7.7v.7h.914A2.816,2.816,0,0,1-5735,4.219v7.453a.7.7,0,0,1-.7.7.7.7,0,0,1-.7-.7V4.219a1.407,1.407,0,0,0-1.406-1.406h-.914v.7a.7.7,0,0,1-.7.7.7.7,0,0,1-.7-.7v-.7h-3.2v.7a.7.7,0,0,1-.7.7.7.7,0,0,1-.7-.7v-.7h-3.164v.7a.7.7,0,0,1-.7.7.7.7,0,0,1-.7-.7v-.7h-.879a1.408,1.408,0,0,0-1.406,1.406V15.187a1.408,1.408,0,0,0,1.406,1.406h12.375a1.407,1.407,0,0,0,1.406-1.406.7.7,0,0,1,.7-.7.7.7,0,0,1,.7.7A2.816,2.816,0,0,1-5737.813,18Zm7-4.5a.7.7,0,0,1,.7-.7.7.7,0,0,1,.7.7.7.7,0,0,1-.7.7A.7.7,0,0,1-5743.192,13.5Zm-3.059,0a.7.7,0,0,1,.7-.7.7.7,0,0,1,.7.7.7.7,0,0,1-.7.7A.7.7,0,0,1-5746.251,13.5Zm-3.059,0a.7.7,0,0,1,.7-.7.7.7,0,0,1,.7.7.7.7,0,0,1-.7.7A.7.7,0,0,1-5749.31,13.5Zm9.176-3.059a.7.7,0,0,1,.7-.7.7.7,0,0,1,.7.7.7.7,0,0,1-.7.7A.7.7,0,0,1-5740.134,10.441Zm-3.059,0a.7.7,0,0,1,.7-.7.7.7,0,0,1,.7.7.7.7,0,0,1-.7.7A.7.7,0,0,1-5743.192,10.441Zm-3.059,0a.7.7,0,0,1,.7-.7.7.7,0,0,1,.7.7.7.7,0,0,1-.7.7A.7.7,0,0,1-5746.251,10.441Zm-3.059,0a.7.7,0,0,1,.7-.7.7.7,0,0,1,.7.7.7.7,0,0,1-.7.7A.7.7,0,0,1-5749.31,10.441Zm9.176-3.059a.7.7,0,0,1,.7-.7.7.7,0,0,1,.7.7.7.7,0,0,1-.7.7A.7.7,0,0,1-5740.134,7.383Zm-3.059,0a.7.7,0,0,1,.7-.7.7.7,0,0,1,.7.7.7.7,0,0,1-.7.7A.7.7,0,0,1-5743.192,7.383Zm-3.059,0a.7.7,0,0,1,.7-.7.7.7,0,0,1,.7.7.7.7,0,0,1-.7.7A.7.7,0,0,1-5746.251,7.383Zm-3.059,0a.7.7,0,0,1,.7-.7.7.7,0,0,1,.7.7.7.7,0,0,1-.7.7A.7.7,0,0,1-5749.31,7.383Z" transform="translate(5753.001)"/></svg>