<svg xmlns="http://www.w3.org/2000/svg" width="14.86" height="16" viewBox="0 0 14.86 16"><defs><style>.a{fill:#546073;}</style></defs><path class="a" d="M-1434.894-5026a1.105,1.105,0,0,1-1.106-1.105v-11.853a1.106,1.106,0,0,1,1.106-1.105h1.216v-.831a1.106,1.106,0,0,1,1.106-1.105h.044a1.106,1.106,0,0,1,1.106,1.105v.831h5.705v-.831a1.106,1.106,0,0,1,1.106-1.105h.044a1.106,1.106,0,0,1,1.106,1.105v.831h1.216a1.106,1.106,0,0,1,1.106,1.105v11.853a1.105,1.105,0,0,1-1.106,1.105Zm.752-1.747H-1423v-8.978h-11.145Zm7.707-1.819a.177.177,0,0,1-.177-.177v-1.923a.177.177,0,0,1,.177-.177h1.924a.177.177,0,0,1,.177.177v1.923a.177.177,0,0,1-.177.177Zm-3.1,0a.177.177,0,0,1-.177-.177v-1.923a.177.177,0,0,1,.177-.177h1.924a.177.177,0,0,1,.177.177v1.923a.177.177,0,0,1-.177.177Zm-3.1,0a.177.177,0,0,1-.177-.177v-1.923a.177.177,0,0,1,.177-.177h1.924a.177.177,0,0,1,.177.177v1.923a.177.177,0,0,1-.177.177Zm6.192-3.1a.177.177,0,0,1-.177-.177v-1.923a.177.177,0,0,1,.177-.177h1.924a.177.177,0,0,1,.177.177v1.923a.177.177,0,0,1-.177.177Zm-3.1,0a.177.177,0,0,1-.177-.177v-1.923a.177.177,0,0,1,.177-.177h1.924a.177.177,0,0,1,.177.177v1.923a.177.177,0,0,1-.177.177Zm-3.1,0a.177.177,0,0,1-.177-.177v-1.923a.177.177,0,0,1,.177-.177h1.924a.177.177,0,0,1,.177.177v1.923a.177.177,0,0,1-.177.177Z" transform="translate(1436 5042)"/></svg>