<svg xmlns="http://www.w3.org/2000/svg" width="16" height="16" viewBox="0 0 16 16"><defs><style>.a{fill:#4ad295;stroke:#2494ed;}.b{fill:#fff;}.c{stroke:none;}.d{fill:none;}</style></defs><g transform="translate(-555 -436)"><g transform="translate(0 57)"><g class="a" transform="translate(555 379)"><rect class="c" width="16" height="16" rx="2"/><rect class="d" x="0.5" y="0.5" width="15" height="15" rx="1.5"/></g></g><path class="b" d="M4.6,9.544a.612.612,0,0,1-.866,0L.269,6.084a.919.919,0,0,1,0-1.3L.7,4.352a.919.919,0,0,1,1.3,0l2.16,2.16L10,.675a.919.919,0,0,1,1.3,0l.433.433a.919.919,0,0,1,0,1.3Zm0,0" transform="translate(557 438.594)"/></g></svg>