<svg xmlns="http://www.w3.org/2000/svg" width="32.016" height="24" viewBox="0 0 32.016 24"><defs><style>.a{fill:#9dacbf;}</style></defs><g transform="translate(0.15 447.942)"><path class="a" d="M2.441-447.858a3.472,3.472,0,0,0-2.488,2.482c-.138.606-.138,18.259,0,18.865A3.4,3.4,0,0,0,1.735-424.3a4.278,4.278,0,0,0,.8.294c.231.05,4.144.069,13.346.069,14.3,0,13.383.025,14.183-.381a3.576,3.576,0,0,0,1.732-2.294c.094-.469.094-18.184,0-18.653a3.576,3.576,0,0,0-1.732-2.294c-.8-.406.131-.381-14.233-.375C5.51-447.933,2.7-447.92,2.441-447.858Zm26.86,1.419a1.9,1.9,0,0,1,1.013.981l.206.419v18.19l-.206.419a1.9,1.9,0,0,1-1.013.981l-.344.162H2.766l-.419-.206a1.9,1.9,0,0,1-.981-1.013l-.163-.344v-18.19l.163-.344a2,2,0,0,1,1.363-1.163c.225-.062,3.113-.075,13.258-.069l12.971.013Z" transform="translate(0 0)"/><path class="a" d="M109.963-362.53a3.414,3.414,0,0,0-2.809,2.639,4.172,4.172,0,0,0,.12,1.812,3.416,3.416,0,0,0,3.359,2.222,3.32,3.32,0,0,0,3.144-3.138,3.151,3.151,0,0,0-.328-1.679A3.367,3.367,0,0,0,109.963-362.53Zm1.351,1.509a2.15,2.15,0,0,1,.941.941,1.519,1.519,0,0,1,.177.865,1.762,1.762,0,0,1-.638,1.477,1.961,1.961,0,0,1-2.7,0,1.979,1.979,0,0,1,.24-3.138,1.587,1.587,0,0,1,1.206-.3A1.644,1.644,0,0,1,111.314-361.021Z" transform="translate(-100.567 -80.06)"/><path class="a" d="M299.092-340.817a.665.665,0,0,0,.158,1.048c.177.088.6.1,4.438.082l4.236-.019.164-.152a.681.681,0,0,0-.126-1.073c-.114-.05-1.414-.069-4.419-.069h-4.268Z" transform="translate(-280.492 -100.261)"/><path class="a" d="M299.22-255.684a.676.676,0,0,0-.12,1.035l.183.183h4.268c3.005,0,4.306-.019,4.419-.069a.681.681,0,0,0,.126-1.073l-.164-.152-4.268-.013C299.763-255.785,299.378-255.778,299.22-255.684Z" transform="translate(-280.5 -180.159)"/><path class="a" d="M66.829-234.574a4.13,4.13,0,0,0-1.686.808,3.731,3.731,0,0,0-.928,1.4,3.914,3.914,0,0,0-.183,1.49c-.025.922-.013,1.1.082,1.282a.64.64,0,0,0,.758.322c.41-.133.436-.215.474-1.383.032-.96.051-1.08.2-1.4a2.157,2.157,0,0,1,.972-1.01l.309-.152,3.163-.019c3.081-.013,3.176-.013,3.523.114a2.137,2.137,0,0,1,1.1,1.061,3,3,0,0,1,.2,1.408c.044,1.168.069,1.25.48,1.383a.64.64,0,0,0,.758-.322,7.154,7.154,0,0,0-.082-2.721,3.462,3.462,0,0,0-2.172-2.147c-.391-.139-.448-.145-3.491-.152C68.6-234.624,67.037-234.605,66.829-234.574Z" transform="translate(-60.119 -200.026)"/><path class="a" d="M299.4-171.005a.635.635,0,0,0-.4.606.623.623,0,0,0,.417.606c.316.133,8.264.133,8.58,0a.733.733,0,0,0,.41-.606.733.733,0,0,0-.41-.606C307.681-171.132,299.7-171.132,299.4-171.005Z" transform="translate(-280.583 -259.547)"/></g></svg>