<svg xmlns="http://www.w3.org/2000/svg" width="56" height="56" viewBox="0 0 56 56"><defs><style>.a{fill:#eaeff3;}.b{fill:#fff;}.c{fill:#7f8896;}</style></defs><g transform="translate(-171 -399)"><rect class="a" width="56" height="56" rx="4" transform="translate(171 399)"/><g transform="translate(-745.614 -5559.474)"><path class="a" d="M39.734,48.53H0L9.961,43.1a4.146,4.146,0,0,0,2.162-3.642V35.294A22.588,22.588,0,0,1,8,26.774,3.414,3.414,0,0,1,6.43,23.909V19.354a3.4,3.4,0,0,1,1.138-2.524V10.247a8.584,8.584,0,0,1,.081-2.2,9.234,9.234,0,0,1,.6-2.136A8.331,8.331,0,0,1,9.668,3.631,9.547,9.547,0,0,1,13.44,1.074,14.822,14.822,0,0,1,16.356.289,22.631,22.631,0,0,1,20.092,0a22.632,22.632,0,0,1,3.736.289,14.822,14.822,0,0,1,2.916.785,9.546,9.546,0,0,1,3.772,2.557,8.331,8.331,0,0,1,1.418,2.277,9.234,9.234,0,0,1,.6,2.136,8.576,8.576,0,0,1,.081,2.2v6.584a3.4,3.4,0,0,1,1.138,2.524v4.554a3.415,3.415,0,0,1-2.422,3.25,25,25,0,0,1-3.38,6.813,16.524,16.524,0,0,1-1.029,1.323v4.267a4.125,4.125,0,0,0,2.293,3.71L39.734,48.53Z" transform="translate(925.066 5965.758)"/><path class="b" d="M39.7,48.618H0a38.511,38.511,0,0,1,3.927-2.1c.448-.22.8-.393.94-.47.472-.265.931-.507,1.374-.742.6-.317,1.164-.616,1.711-.941a6.92,6.92,0,0,0,.168.725,1.4,1.4,0,0,0,2.322.614,19.049,19.049,0,0,0,3.546-6.775,1.1,1.1,0,0,0,.554-1.111,17.208,17.208,0,0,0-.932-4.384,1.573,1.573,0,0,0-1.885-.93c-.37-.952-.781-1.9-1.178-2.819-.21-.485-.426-.984-.63-1.469a1.473,1.473,0,0,0-.6-.688c-.112-.357-.227-.719-.34-1.069l-.08-.25c-.045-1.564-.082-3.155-.118-4.692L8.758,20.5c1.308-4.322,3.1-10.24,2.813-15.116a1.316,1.316,0,0,0-1.093-1.308,35.936,35.936,0,0,1,4.81-2.409A1.486,1.486,0,0,0,16.2.107C16.953.036,17.732,0,18.516,0c4.7,0,7.935,1.172,9.611,3.483a7.267,7.267,0,0,1,1.264,4.5,9.015,9.015,0,0,1-.351,2.268v6.584a3.4,3.4,0,0,1,1.139,2.524v4.554a3.4,3.4,0,0,1-2.423,3.25,25,25,0,0,1-3.379,6.813,16.48,16.48,0,0,1-1.03,1.322v4.268a4.126,4.126,0,0,0,2.293,3.71L39.7,48.616Z" transform="translate(922.614 5965.671)"/><path class="c" d="M4.851,49.677H0v-.371l.121.109a10.388,10.388,0,0,1,.985-.621l10.157-5.539a2.863,2.863,0,0,0,1.493-2.515V37.023a24.111,24.111,0,0,1-3.973-8.206,4.675,4.675,0,0,1-1.721-3.624V20.639A4.68,4.68,0,0,1,8.2,17.6V11.6a10.36,10.36,0,0,1,2.418-7.533C12.985,1.369,16.817,0,22.008,0S31.031,1.369,33.4,4.069A10.361,10.361,0,0,1,35.816,11.6V17.6a4.681,4.681,0,0,1,1.139,3.043v4.554a4.662,4.662,0,0,1-2.678,4.225A26.192,26.192,0,0,1,30.916,36c-.271.382-.537.735-.793,1.05v3.8a2.848,2.848,0,0,0,1.583,2.56l10.875,5.438a10.343,10.343,0,0,1,1.172.7l.124-.11v.246H38.5L30.557,45.7a5.4,5.4,0,0,1-3-4.858V36.578a1.282,1.282,0,0,1,.319-.847c.334-.389.652-.8.946-1.219a23.712,23.712,0,0,0,3.206-6.464,1.285,1.285,0,0,1,.844-.833,2.14,2.14,0,0,0,1.517-2.023V20.639a2.1,2.1,0,0,0-.715-1.571,1.286,1.286,0,0,1-.424-.953V11.532a1.258,1.258,0,0,1,.011-.168,7.823,7.823,0,0,0-1.815-5.627c-1.862-2.1-5.036-3.167-9.435-3.167-4.418,0-7.6,1.074-9.458,3.193a7.693,7.693,0,0,0-1.792,5.6,1.261,1.261,0,0,1,.011.168v6.584a1.286,1.286,0,0,1-.424.953,2.1,2.1,0,0,0-.715,1.571v4.553a2.117,2.117,0,0,0,.987,1.787,1.28,1.28,0,0,1,.554.792,21.324,21.324,0,0,0,3.855,7.984,1.3,1.3,0,0,1,.3.823v4.161a5.428,5.428,0,0,1-2.832,4.77l-7.64,4.167Z" transform="translate(923.15 5964.474)"/></g></g></svg>