<svg xmlns="http://www.w3.org/2000/svg" width="14.625" height="18" viewBox="0 0 14.625 18"><defs><style>.a{fill:#546073;}</style></defs><path class="a" d="M-2868.959-3112a1.685,1.685,0,0,1-1.685-1.607l-.464-9.74a.176.176,0,0,1,.176-.185h12.49a.175.175,0,0,1,.176.185l-.464,9.74a1.686,1.686,0,0,1-1.685,1.607Zm6.521-10.125v7.313a.562.562,0,0,0,.563.563.562.562,0,0,0,.563-.562v-7.312a.562.562,0,0,0-.562-.562A.562.562,0,0,0-2862.438-3122.125Zm-2.812,0v7.313a.562.562,0,0,0,.563.563.562.562,0,0,0,.563-.562v-7.312a.562.562,0,0,0-.562-.562A.562.562,0,0,0-2865.25-3122.125Zm-2.812,0v7.313a.562.562,0,0,0,.563.563.562.562,0,0,0,.563-.562v-7.312a.562.562,0,0,0-.562-.562A.562.562,0,0,0-2868.063-3122.125Zm-3.375-2.531a.563.563,0,0,1-.562-.563v-1.125a1.407,1.407,0,0,1,1.406-1.406h3.094v-.562a1.688,1.688,0,0,1,1.688-1.688h2.25a1.688,1.688,0,0,1,1.688,1.688v.562h3.094a1.407,1.407,0,0,1,1.406,1.406v1.125a.563.563,0,0,1-.562.563Zm5.063-3.656v.562H-2863v-.562a.563.563,0,0,0-.562-.562h-2.25A.563.563,0,0,0-2866.375-3128.313Z" transform="translate(2872 3130)"/></svg>