<svg xmlns="http://www.w3.org/2000/svg" width="13" height="16" viewBox="0 0 13 16"><defs><style>.a{fill:#2494ed;}</style></defs><path class="a" d="M-2869.3-3114a1.5,1.5,0,0,1-1.5-1.428l-.412-8.657a.156.156,0,0,1,.156-.164h11.1a.156.156,0,0,1,.156.164l-.412,8.657a1.5,1.5,0,0,1-1.5,1.428Zm5.8-9v6.5a.5.5,0,0,0,.5.5.5.5,0,0,0,.5-.5v-6.5a.5.5,0,0,0-.5-.5A.5.5,0,0,0-2863.5-3123Zm-2.5,0v6.5a.5.5,0,0,0,.5.5.5.5,0,0,0,.5-.5v-6.5a.5.5,0,0,0-.5-.5A.5.5,0,0,0-2866-3123Zm-2.5,0v6.5a.5.5,0,0,0,.5.5.5.5,0,0,0,.5-.5v-6.5a.5.5,0,0,0-.5-.5A.5.5,0,0,0-2868.5-3123Zm-3-2.25a.5.5,0,0,1-.5-.5v-1a1.25,1.25,0,0,1,1.25-1.25h2.75v-.5a1.5,1.5,0,0,1,1.5-1.5h2a1.5,1.5,0,0,1,1.5,1.5v.5h2.75a1.25,1.25,0,0,1,1.25,1.25v1a.5.5,0,0,1-.5.5Zm4.5-3.25v.5h3v-.5a.5.5,0,0,0-.5-.5h-2A.5.5,0,0,0-2867-3128.5Z" transform="translate(2872 3130)"/></svg>