<svg xmlns="http://www.w3.org/2000/svg" width="13" height="17.067" viewBox="0 0 13 17.067"><defs><style>.a{fill:#42a5f5;}</style></defs><path class="a" d="M-1434.167-5024.934a1.836,1.836,0,0,1-1.833-1.833v-13.4a1.835,1.835,0,0,1,1.833-1.833h5.967v3.833a1.168,1.168,0,0,0,1.167,1.167H-1423v10.233a1.836,1.836,0,0,1-1.833,1.833Zm.4-4.567a.5.5,0,0,0,.5.5h2.424a.5.5,0,0,0,.5-.5.5.5,0,0,0-.5-.5h-2.424A.5.5,0,0,0-1433.766-5029.5Zm0-2.667a.5.5,0,0,0,.5.5h7.333a.5.5,0,0,0,.5-.5.5.5,0,0,0-.5-.5h-7.333A.5.5,0,0,0-1433.766-5032.167Zm0-2.667a.5.5,0,0,0,.5.5h7.333a.5.5,0,0,0,.5-.5.5.5,0,0,0-.5-.5h-7.333A.5.5,0,0,0-1433.766-5034.834Zm6.733-3.167a.166.166,0,0,1-.167-.167v-3.626a1.861,1.861,0,0,1,.412.294l3.214,3.041a1.838,1.838,0,0,1,.35.458Z" transform="translate(1436 5042)"/></svg>