<svg xmlns="http://www.w3.org/2000/svg" width="16" height="16" viewBox="0 0 16 16"><defs><style>.a{fill:#546073;}</style></defs><path class="a" d="M-1422.621-4830a1.379,1.379,0,0,1-1.38-1.378V-4838a.828.828,0,0,1,.828-.827.828.828,0,0,1,.827.827v6.345h12.69V-4838a.828.828,0,0,1,.828-.827.827.827,0,0,1,.827.827v6.622a1.379,1.379,0,0,1-1.378,1.378Zm6.036-3.553-3.121-3.121a.828.828,0,0,1,0-1.171.831.831,0,0,1,1.171,0l1.708,1.709v-9.037A.827.827,0,0,1-1416-4846a.828.828,0,0,1,.828.828v9.037l1.708-1.709a.831.831,0,0,1,1.171,0,.828.828,0,0,1,0,1.171l-3.121,3.121a.824.824,0,0,1-.585.243A.824.824,0,0,1-1416.585-4833.553Z" transform="translate(1424 4846)"/></svg>