<svg xmlns="http://www.w3.org/2000/svg" width="16" height="15.983" viewBox="0 0 16 15.983"><defs><style>.a{fill:#546073;}</style></defs><path class="a" d="M-2871.9-3114.117a.349.349,0,0,1-.091-.33l.975-3.917a.357.357,0,0,1,.092-.161l8.8-8.8,3.431,3.43-8.8,8.8a.343.343,0,0,1-.16.091l-3.917.976a.331.331,0,0,1-.084.01A.347.347,0,0,1-2871.9-3114.117Zm10.76-14.191,1.2-1.2a1.775,1.775,0,0,1,2.451,0l.98.98a1.722,1.722,0,0,1,.507,1.225,1.722,1.722,0,0,1-.507,1.225l-1.2,1.2Z" transform="translate(2872 3130)"/></svg>