<svg xmlns="http://www.w3.org/2000/svg" width="23.593" height="23.463" viewBox="0 0 23.593 23.463"><defs><style>.a{fill:#546073;}</style></defs><path class="a" d="M7177.671-2013a1.365,1.365,0,0,1-.432-.068c-2.016-.679-3.182-1.69-3.467-3-.274-1.266.334-2.659,1.714-3.922.532-.486.456-.875.431-1-.193-.988-1.894-2.171-4.548-3.163a.559.559,0,0,1-.317-.3.555.555,0,0,1-.015-.432.572.572,0,0,1,.533-.37.573.573,0,0,1,.2.035c3.163,1.185,4.983,2.571,5.263,4.01a2.146,2.146,0,0,1-.776,2.058,3.264,3.264,0,0,0-1.372,2.843,2.436,2.436,0,0,0,1.2,1.472.187.187,0,0,0,.1.03.189.189,0,0,0,.175-.119c.1-.237.351-.827,1.108-2.578l.119-.275c.413-.955.961-2.222,1.688-3.9a1.12,1.12,0,0,1,1.018-.668l.13,0c.072,0,.153,0,.243,0a5.773,5.773,0,0,0,1.656-.235,1.852,1.852,0,0,1,.3-2.22,1.828,1.828,0,0,1,1.3-.54,1.864,1.864,0,0,1,.858.209l1.664-1.693a.563.563,0,0,1,.405-.17.562.562,0,0,1,.4.166l2.865,2.865a.56.56,0,0,1,.167.407.559.559,0,0,1-.172.4l-1.708,1.65a1.842,1.842,0,0,1-.336,2.148,1.837,1.837,0,0,1-1.307.541,1.841,1.841,0,0,1-.915-.243,6.137,6.137,0,0,0-.227,2,1.1,1.1,0,0,1-.668,1.051l-6.74,2.91A1.358,1.358,0,0,1,7177.671-2013Zm4.039-6.5a1.072,1.072,0,0,0-1.07,1.071,1.071,1.071,0,0,0,1.07,1.07,1.072,1.072,0,0,0,1.071-1.07A1.072,1.072,0,0,0,7181.709-2019.5Zm2.209-4.71a.7.7,0,0,0-.5.208.71.71,0,0,0-.208.5.709.709,0,0,0,.208.5l1.417,1.416.727.727.691.692a.707.707,0,0,0,.5.209.712.712,0,0,0,.5-.209.715.715,0,0,0,0-1.007l-1.418-1.418-1.418-1.418A.711.711,0,0,0,7183.919-2024.213Z" transform="matrix(0.719, -0.695, 0.695, 0.719, -3750.313, 6452.889)"/></svg>