<svg xmlns="http://www.w3.org/2000/svg" width="20.002" height="20" viewBox="0 0 20.002 20"><defs><style>.a{fill:#2494ed;}</style></defs><path class="a" d="M18.811,19.8l-4.624-4.624v2.97a.7.7,0,0,1-1.393,0V13.49a.7.7,0,0,1,.7-.7h4.652a.7.7,0,0,1,0,1.393h-2.97L19.8,18.811a.7.7,0,0,1-.986.986ZM.205,19.8a.7.7,0,0,1,0-.986l4.623-4.624H1.859a.7.7,0,0,1,0-1.393H6.511a.7.7,0,0,1,.7.7v4.652a.7.7,0,1,1-1.393,0v-2.97L1.19,19.8a.7.7,0,0,1-.985,0ZM13.63,7.068a.7.7,0,0,1-.7-.7V1.72a.7.7,0,1,1,1.393,0V4.69L18.812.2a.7.7,0,0,1,.986.985L15.312,5.674h2.97a.7.7,0,0,1,0,1.393Zm-11.91,0a.7.7,0,0,1,0-1.393H4.69L.2,1.189A.7.7,0,1,1,1.189.2L5.675,4.69V1.72a.7.7,0,1,1,1.393,0V6.371a.7.7,0,0,1-.7.7Z" transform="translate(0)"/></svg>