<svg xmlns="http://www.w3.org/2000/svg" width="13.5" height="18" viewBox="0 0 13.5 18"><defs><style>.a{fill:#546073;}</style></defs><path class="a" d="M9.6,17.781,6.969,15.155A.75.75,0,0,1,8.03,14.1L9.375,15.44V.75a.75.75,0,1,1,1.5,0V15.44L12.219,14.1a.75.75,0,0,1,1.061,1.06l-2.625,2.625a.75.75,0,0,1-1.06,0Zm-6.97-.53V2.561L1.28,3.905A.749.749,0,0,1,.22,2.846L2.844.22A.751.751,0,0,1,3.9.22L6.529,2.846a.749.749,0,1,1-1.06,1.06L4.125,2.561V17.25a.75.75,0,0,1-1.5,0Z" transform="translate(0)"/></svg>