<svg xmlns="http://www.w3.org/2000/svg" width="20" height="20" viewBox="0 0 20 20">
  <path id="Union_93" data-name="Union 93" d="M7188.693-2007.381l-1.172-3.125a.592.592,0,0,1-.037-.206V-2023.6a1.76,1.76,0,0,1,1.758-1.758A1.76,1.76,0,0,1,7191-2023.6v12.891a.592.592,0,0,1-.038.206l-1.172,3.125a.585.585,0,0,1-.548.38A.586.586,0,0,1,7188.693-2007.381Zm.549-1.874.326-.87h-.653Zm-.586-2.042h1.172v-8.984h-1.172Zm0-12.3v2.148h1.172v-2.148a.587.587,0,0,0-.586-.586A.586.586,0,0,0,7188.656-2023.6Zm-15.508,16.6a2.151,2.151,0,0,1-2.148-2.148v-14.531a2.151,2.151,0,0,1,2.148-2.148h1.468a1.761,1.761,0,0,1,1.657-1.172h4.688a1.761,1.761,0,0,1,1.657,1.172h1.468a2.151,2.151,0,0,1,2.148,2.148v14.531a2.151,2.151,0,0,1-2.148,2.148Zm-.977-16.68v14.531a.977.977,0,0,0,.977.977h10.938a.978.978,0,0,0,.977-.977v-14.531a.978.978,0,0,0-.977-.977h-1.468a1.766,1.766,0,0,1-1.071,1.071v.687a1.76,1.76,0,0,1-1.758,1.758h-2.344a1.76,1.76,0,0,1-1.758-1.758v-.687a1.765,1.765,0,0,1-1.071-1.071h-1.468A.977.977,0,0,0,7172.171-2023.68Zm4.688.781a.587.587,0,0,0,.586.586h2.344a.587.587,0,0,0,.586-.586v-.586h-3.516Zm-1.172-2.344a.587.587,0,0,0,.586.586h4.688a.587.587,0,0,0,.586-.586.587.587,0,0,0-.586-.586h-4.687A.586.586,0,0,0,7175.687-2025.243Zm5.273,15.82a.586.586,0,0,1-.586-.586.585.585,0,0,1,.586-.586h2.344a.586.586,0,0,1,.586.586.586.586,0,0,1-.586.586Zm-3.516-2.344a.586.586,0,0,1-.586-.586.585.585,0,0,1,.586-.586h3.906a.586.586,0,0,1,.586.586.586.586,0,0,1-.586.586Zm-3.516,0a.586.586,0,0,1-.586-.586.585.585,0,0,1,.586-.586h1.172a.586.586,0,0,1,.586.586.586.586,0,0,1-.586.586Zm3.516-2.344a.586.586,0,0,1-.586-.586.585.585,0,0,1,.586-.586h5.859a.586.586,0,0,1,.586.586.586.586,0,0,1-.586.586Zm-3.516,0a.586.586,0,0,1-.586-.586.585.585,0,0,1,.586-.586h1.172a.586.586,0,0,1,.586.586.586.586,0,0,1-.586.586Zm3.516-2.344a.586.586,0,0,1-.586-.586.585.585,0,0,1,.586-.586h4.688a.586.586,0,0,1,.586.586.586.586,0,0,1-.586.586Zm-3.516,0a.586.586,0,0,1-.586-.586.585.585,0,0,1,.586-.586h1.172a.586.586,0,0,1,.586.586.586.586,0,0,1-.586.586Zm3.516-2.344a.586.586,0,0,1-.586-.586.585.585,0,0,1,.586-.586h5.859a.586.586,0,0,1,.586.586.586.586,0,0,1-.586.586Zm-3.516,0a.586.586,0,0,1-.586-.586.585.585,0,0,1,.586-.586h1.172a.586.586,0,0,1,.586.586.586.586,0,0,1-.586.586Z" transform="translate(-7171 2027)" fill="#2494ed"/>
</svg>
