<svg xmlns="http://www.w3.org/2000/svg" width="21.269" height="19" viewBox="0 0 21.269 19"><defs><style>.a{fill:#2494ed;}</style></defs><g transform="translate(0)"><path class="a" d="M17.244,34.752a5.307,5.307,0,0,0-6.6-8.286,5.31,5.31,0,0,0-6.612,8.286A7.544,7.544,0,0,0,0,41.455v2.279a.76.76,0,0,0,.76.76H20.51a.76.76,0,0,0,.76-.76V41.455A7.544,7.544,0,0,0,17.244,34.752Zm-3.57-7.729a3.793,3.793,0,0,1,1.561,7.251c-.058.027-.117.051-.176.076a3.723,3.723,0,0,1-.578.18c-.038.008-.076.013-.115.021a3.8,3.8,0,0,1-.668.068c-.1,0-.2-.008-.3-.017a.574.574,0,0,1-.114-.008,3.837,3.837,0,0,1-1.242-.366c-.014-.007-.031-.006-.046-.012-.076-.036-.152-.068-.22-.109.006-.008.01-.016.016-.024A5.329,5.329,0,0,0,12.6,32.6l.024-.064a5.358,5.358,0,0,0,.2-.782c.007-.039.012-.076.018-.118a4.849,4.849,0,0,0,0-1.632c-.006-.039-.011-.076-.018-.118a5.36,5.36,0,0,0-.2-.782l-.024-.064a5.33,5.33,0,0,0-.814-1.482c-.006-.008-.01-.016-.016-.024A3.774,3.774,0,0,1,13.674,27.022ZM3.8,30.821a3.788,3.788,0,0,1,6.41-2.744c.044.043.087.085.13.129a3.907,3.907,0,0,1,.36.437c.033.047.064.1.095.146a3.737,3.737,0,0,1,.279.513c.019.043.033.087.05.131a3.713,3.713,0,0,1,.188.608c.005.023.007.046.011.069a3.576,3.576,0,0,1,0,1.43c0,.024-.006.046-.011.069a3.7,3.7,0,0,1-.188.608c-.017.043-.031.087-.05.131a3.75,3.75,0,0,1-.279.512c-.031.049-.062.1-.095.146a3.9,3.9,0,0,1-.36.437c-.043.044-.086.087-.13.129a3.791,3.791,0,0,1-1.049.708c-.062.028-.124.054-.187.076a3.82,3.82,0,0,1-.564.175c-.048.011-.1.017-.146.025a3.767,3.767,0,0,1-.625.063H7.555a3.762,3.762,0,0,1-.625-.063c-.049-.008-.1-.014-.146-.025a3.818,3.818,0,0,1-.564-.175l-.187-.076A3.8,3.8,0,0,1,3.8,30.821Zm9.875,12.154H1.52V41.455a6.039,6.039,0,0,1,4.04-5.724,5.3,5.3,0,0,0,4.075,0,6.106,6.106,0,0,1,.74.327c.158.081.3.174.456.267.1.062.2.122.294.189.147.1.285.217.421.333.087.076.174.152.256.228.125.118.243.244.356.372.081.093.16.187.235.284.1.128.194.258.283.393.076.114.144.232.21.351s.146.261.21.4.12.285.175.43c.048.126.1.251.138.38.053.176.09.359.128.541.023.108.052.213.069.323a6.282,6.282,0,0,1,.069.909v1.519Zm6.077,0H15.193V41.455c0-.238-.014-.473-.035-.706-.006-.068-.017-.136-.024-.2-.021-.168-.044-.334-.076-.5q-.02-.106-.043-.212-.055-.254-.127-.5c-.016-.055-.03-.11-.047-.164a7.527,7.527,0,0,0-.915-1.92L13.9,37.2q-.2-.291-.419-.563l-.005-.007a6.892,6.892,0,0,0-.49-.545h.031a5.381,5.381,0,0,0,.646.046H13.7a5.373,5.373,0,0,0,.6-.039c.062-.008.124-.019.186-.029q.242-.037.479-.1c.045-.011.09-.022.136-.035a5.172,5.172,0,0,0,.608-.207,6.039,6.039,0,0,1,4.043,5.726v1.519Z" transform="translate(-0.001 -25.494)"/></g></svg>