<svg xmlns="http://www.w3.org/2000/svg" width="27" height="24" viewBox="0 0 27 24"><defs><style>.a{fill:#9dacbf;}</style></defs><g transform="translate(0)"><path class="a" d="M21.89,37.188A6.681,6.681,0,0,0,22.4,27.72a6.761,6.761,0,0,0-8.891-1,6.762,6.762,0,0,0-9.393,1.612,6.683,6.683,0,0,0,1,8.854A9.523,9.523,0,0,0,0,45.656v2.879a.962.962,0,0,0,.964.96H26.036a.962.962,0,0,0,.964-.96V45.656A9.523,9.523,0,0,0,21.89,37.188Zm-4.532-9.763a4.787,4.787,0,0,1,1.982,9.16c-.074.034-.148.064-.224.1a4.743,4.743,0,0,1-.734.227c-.048.011-.1.016-.146.026a4.847,4.847,0,0,1-.849.085c-.128,0-.257-.01-.386-.021a.732.732,0,0,1-.145-.01,4.889,4.889,0,0,1-1.577-.462c-.018-.009-.04-.008-.058-.015-.1-.046-.193-.086-.279-.138.008-.01.013-.02.02-.03A6.721,6.721,0,0,0,16,34.47l.03-.081a6.741,6.741,0,0,0,.256-.987c.009-.049.015-.1.023-.149a6.1,6.1,0,0,0,0-2.061c-.008-.05-.014-.1-.023-.149a6.743,6.743,0,0,0-.256-.987L16,29.976A6.723,6.723,0,0,0,14.964,28.1c-.008-.01-.013-.02-.02-.03A4.809,4.809,0,0,1,17.358,27.425Zm-12.536,4.8a4.814,4.814,0,0,1,8.138-3.466c.056.054.111.107.165.163a4.94,4.94,0,0,1,.457.552c.042.059.081.123.121.184a4.713,4.713,0,0,1,.354.648c.024.055.042.11.064.165a4.673,4.673,0,0,1,.239.768c.007.029.009.058.014.087a4.5,4.5,0,0,1,0,1.806c-.006.03-.008.059-.014.087a4.662,4.662,0,0,1-.239.768c-.021.055-.04.11-.064.165a4.729,4.729,0,0,1-.354.647c-.04.061-.078.125-.121.184a4.928,4.928,0,0,1-.457.552c-.054.056-.109.109-.165.163a4.814,4.814,0,0,1-1.332.894c-.078.035-.157.068-.237.1a4.867,4.867,0,0,1-.715.221c-.061.013-.123.021-.185.032a4.8,4.8,0,0,1-.794.08H9.591a4.8,4.8,0,0,1-.794-.08c-.062-.011-.124-.018-.185-.032a4.865,4.865,0,0,1-.715-.221l-.237-.1A4.8,4.8,0,0,1,4.822,32.222ZM17.358,47.575H1.929V45.656a7.63,7.63,0,0,1,5.128-7.231,6.76,6.76,0,0,0,5.172,0,7.77,7.77,0,0,1,.939.414c.2.1.386.22.579.338.125.078.253.154.373.239.186.131.362.274.534.421.111.1.221.192.325.288.159.15.309.308.452.47.1.117.2.236.3.359.126.161.247.326.359.5.1.144.182.294.267.443.1.165.185.33.266.5s.152.36.222.543c.061.159.125.318.175.48.068.223.115.453.162.683.029.136.067.27.088.408a7.9,7.9,0,0,1,.088,1.148v1.919Zm7.714,0H19.286V45.656c0-.3-.017-.6-.044-.892-.008-.086-.021-.172-.031-.258-.026-.212-.056-.422-.1-.63q-.026-.133-.055-.268-.069-.32-.161-.635c-.02-.069-.039-.139-.06-.207a9.487,9.487,0,0,0-1.162-2.425l-.038-.055q-.249-.368-.531-.711l-.007-.009a8.722,8.722,0,0,0-.622-.688h.04a6.863,6.863,0,0,0,.821.058h.053a6.855,6.855,0,0,0,.76-.049c.079-.01.157-.024.236-.036q.308-.047.607-.122c.057-.014.115-.028.173-.044a6.589,6.589,0,0,0,.771-.261,7.631,7.631,0,0,1,5.132,7.233v1.919Z" transform="translate(-0.001 -25.494)"/></g></svg>