<svg xmlns="http://www.w3.org/2000/svg" width="16" height="16" viewBox="0 0 16 16"><defs><style>.a{fill:#e66767;}.b{fill:#fff;}</style></defs><g transform="translate(-231 -264)"><circle class="a" cx="8" cy="8" r="8" transform="translate(231 264)"/><path class="b" d="M4302.934-978.434a.894.894,0,0,1,.886-.883.862.862,0,0,1,.861.9.868.868,0,0,1-.861.864A.9.9,0,0,1,4302.934-978.434Zm.224-2.11c-.06-1.066-.119-2.108-.181-3.172-.021-.28-.038-.563-.06-.843a.958.958,0,0,1,.682-.964.886.886,0,0,1,1.022.5,1.112,1.112,0,0,1,.081.444c-.021.442-.062.883-.081,1.325-.04.684-.082,1.365-.12,2.049-.021.223-.021.422-.021.643a.662.662,0,0,1-.66.643A.647.647,0,0,1,4303.157-980.544Z" transform="translate(-4064.917 1253.548)"/></g></svg>