<svg xmlns="http://www.w3.org/2000/svg" width="14.309" height="20" viewBox="0 0 14.309 20"><defs><style>.a{fill:#546073;}</style></defs><path class="a" d="M-18644.158-2252a2.847,2.847,0,0,1-2.844-2.844v-7.235a2.848,2.848,0,0,1,1.773-2.634v-2.208a5.084,5.084,0,0,1,5.078-5.08h.6a5.086,5.086,0,0,1,5.08,5.08v2.208a2.848,2.848,0,0,1,1.773,2.634v7.235a2.847,2.847,0,0,1-2.844,2.844Zm-1.633-10.079v7.235a1.634,1.634,0,0,0,1.633,1.632h8.621a1.632,1.632,0,0,0,1.631-1.632v-7.235a1.632,1.632,0,0,0-1.631-1.631h-8.621A1.634,1.634,0,0,0-18645.791-2262.079Zm6.244-7.418a2.58,2.58,0,0,1,2.578,2.576v2h1.289v-2a3.871,3.871,0,0,0-3.867-3.867h-.6a3.87,3.87,0,0,0-3.865,3.867v2h1.289v-2a2.579,2.579,0,0,1,2.576-2.576Zm-1.967,2.576v2h3.332v-2a1.366,1.366,0,0,0-1.365-1.364h-.6A1.365,1.365,0,0,0-18641.514-2266.921Zm.148,10.422v-1.517a2.255,2.255,0,0,1-.74-1.669,2.261,2.261,0,0,1,2.258-2.257,2.259,2.259,0,0,1,2.256,2.257,2.254,2.254,0,0,1-.738,1.669v1.517a1.52,1.52,0,0,1-1.518,1.517A1.52,1.52,0,0,1-18641.365-2256.5Zm.473-3.187a1.045,1.045,0,0,0,.469.87l.271.18v2.137a.3.3,0,0,0,.3.3.3.3,0,0,0,.3-.3v-2.137l.271-.18a1.045,1.045,0,0,0,.469-.87,1.046,1.046,0,0,0-1.045-1.044A1.046,1.046,0,0,0-18640.893-2259.686Z" transform="translate(18647.002 2272.001)"/></svg>