<svg xmlns="http://www.w3.org/2000/svg" width="19.025" height="19" viewBox="0 0 19.025 19"><defs><style>.a{fill:#fff;}</style></defs><g transform="translate(-0.106 511)"><path class="a" d="M51.806-508.174c-1.55,1.551-2.815,2.83-2.807,2.837.026.022,6.161.591,6.221.576a26.69,26.69,0,0,0-.238-3.041c-.16-1.666-.29-3.068-.29-3.116s-.015-.082-.033-.082S53.361-509.728,51.806-508.174Z" transform="translate(-47.075 0)"/><path class="a" d="M233-502.27c0,.112.744,8.013.755,8.024s8.065.762,8.08.751-1.978-2-4.41-4.436C234.049-501.307,233-502.334,233-502.27Z" transform="translate(-224.234 -8.402)"/><path class="a" d="M63.128-322.9c2.428,2.432,4.421,4.395,4.428,4.369.011-.052-.543-6.02-.561-6.035s-.372-.041-.822-.086c-.911-.086-1-.112-1.123-.361a3.143,3.143,0,0,1-.145-.937l-.067-.785-.152-.022c-.086-.011-1.405-.138-2.941-.279s-2.844-.264-2.911-.271C58.722-327.316,59.19-326.836,63.128-322.9Z" transform="translate(-56.53 -176.865)"/><path class="a" d="M309.119-250.977c.007.067.141,1.469.294,3.116s.283,3,.29,3.023,1.286-1.253,2.848-2.815l2.841-2.841-.164-.022c-.089-.011-1.428-.138-2.971-.283s-2.885-.268-2.982-.279l-.175-.022Z" transform="translate(-297.505 -250.236)"/><path class="a" d="M2.333-149.941a2.8,2.8,0,0,0-2.171,2.179,2.8,2.8,0,0,0,2.179,3.279c.257.052,1.026.059,7.25.059,4.659,0,7.042-.015,7.2-.041a2.835,2.835,0,0,0,2.253-2.038,2.951,2.951,0,0,0-.112-1.755A2.845,2.845,0,0,0,16.381-150h-.234l-1.115,1.115-1.115,1.115h1.1c1,0,1.108.007,1.227.071a.47.47,0,0,1,.279.487.47.47,0,0,1-.279.487c-.123.067-.372.071-6.618.071s-6.5,0-6.618-.071a.47.47,0,0,1-.279-.487A.47.47,0,0,1,3-147.7c.123-.067.286-.071,3.291-.071h3.16l-1.115-1.115L7.223-150,4.9-150A20.956,20.956,0,0,0,2.333-149.941Z" transform="translate(0 -347.577)"/></g></svg>