<svg xmlns="http://www.w3.org/2000/svg" width="19.649" height="14" viewBox="0 0 19.649 14"><defs><style>.a{fill:#fff;}</style></defs><g transform="translate(1.461 -2)"><path class="a" d="M5736.409,1002a1.394,1.394,0,0,1-.469-.093l6.028-5.81,2.44,2.275a.641.641,0,0,0,.881-.007l2.447-2.355,6.22,5.806a1.391,1.391,0,0,1-.674.185Zm-1.408-1.409V989.624l6.014,5.6-5.953,5.733A1.359,1.359,0,0,1,5735,1000.592Zm13.651-5.472,6-5.777c0,.022-.016.044-.016.066v11.183c0,.041.011.081.008.121Zm-13.128-6.79a1.387,1.387,0,0,1,.885-.33h16.874a1.386,1.386,0,0,1,.707.206l-9.151,8.815Z" transform="translate(-5736.462 -986.001)"/></g></svg>