<svg xmlns="http://www.w3.org/2000/svg" width="3.556" height="16" viewBox="0 0 3.556 16"><defs><style>.a{fill:#546073;}</style></defs><path class="a" d="M-5744-3115.778a1.778,1.778,0,0,1,1.778-1.778,1.778,1.778,0,0,1,1.778,1.778,1.778,1.778,0,0,1-1.778,1.778A1.778,1.778,0,0,1-5744-3115.778Zm0-6.222a1.778,1.778,0,0,1,1.778-1.778,1.778,1.778,0,0,1,1.778,1.778,1.778,1.778,0,0,1-1.778,1.778A1.778,1.778,0,0,1-5744-3122Zm0-6.222a1.778,1.778,0,0,1,1.778-1.778,1.778,1.778,0,0,1,1.778,1.778,1.778,1.778,0,0,1-1.778,1.778A1.778,1.778,0,0,1-5744-3128.222Z" transform="translate(5744 3130)"/></svg>