<svg xmlns="http://www.w3.org/2000/svg" width="16" height="3.556" viewBox="0 0 16 3.556"><defs><style>.a{fill:#42a5f5;}</style></defs><path class="a" d="M-5744-3115.778a1.778,1.778,0,0,1,1.778-1.778,1.778,1.778,0,0,1,1.778,1.778,1.778,1.778,0,0,1-1.778,1.778A1.778,1.778,0,0,1-5744-3115.778Zm0-6.222a1.778,1.778,0,0,1,1.778-1.778,1.778,1.778,0,0,1,1.778,1.778,1.778,1.778,0,0,1-1.778,1.778A1.778,1.778,0,0,1-5744-3122Zm0-6.222a1.778,1.778,0,0,1,1.778-1.778,1.778,1.778,0,0,1,1.778,1.778,1.778,1.778,0,0,1-1.778,1.778A1.778,1.778,0,0,1-5744-3128.222Z" transform="translate(-3114 5744) rotate(90)"/></svg>