<svg xmlns="http://www.w3.org/2000/svg" width="12" height="12" viewBox="0 0 12 12"><defs><style>.a{fill:#546073;opacity:0.77;}</style></defs><path class="a" d="M147.068-365.8a.979.979,0,0,0-.64,1.186c.055.208.318.492,2.316,2.488L151-359.863l-2.255,2.253c-1.982,1.99-2.261,2.286-2.316,2.493a1,1,0,0,0,1.215,1.214c.208-.055.5-.334,2.5-2.313l2.255-2.253,2.261,2.253c1.987,1.979,2.283,2.258,2.491,2.313a1,1,0,0,0,1.215-1.214c-.055-.208-.334-.5-2.316-2.493l-2.255-2.253,2.255-2.258c1.982-1.985,2.261-2.28,2.316-2.488a1,1,0,0,0-1.215-1.214c-.208.055-.5.334-2.491,2.313l-2.261,2.253-2.255-2.253c-1.916-1.908-2.294-2.258-2.48-2.307A.718.718,0,0,0,147.068-365.8Z" transform="translate(-146.394 365.87)"/></svg>