<svg xmlns="http://www.w3.org/2000/svg" width="65" height="64" viewBox="0 0 65 64"><defs><style>.a{fill:#eff3f6;}.b{fill:#e66767;}.c{fill:#fff;}.d{fill:#9dacbf;}</style></defs><g transform="translate(-280 -493)"><path class="a" d="M8,0H48.25L65,16.465V56a8,8,0,0,1-8,8H8a8,8,0,0,1-8-8V8A8,8,0,0,1,8,0Z" transform="translate(280 493)"/><path class="b" d="M150.8,188.475a38.646,38.646,0,0,1-3.189-2.751c-1.016-1.016-1.921-2-2.707-2.937,1.227-3.79,1.764-5.745,1.764-6.786,0-4.426-1.6-5.333-4-5.333-1.824,0-4,.948-4,5.461,0,1.99,1.09,4.405,3.25,7.212-.529,1.613-1.15,3.474-1.848,5.572-.336,1.007-.7,1.939-1.086,2.8-.314.139-.618.281-.913.428-1.06.53-2.066,1.007-3,1.449-4.258,2.016-7.07,3.349-7.07,5.982,0,1.911,2.077,3.1,4,3.1,2.479,0,6.223-3.311,8.957-8.889a53.046,53.046,0,0,1,9.152-2.469c2.232,1.716,4.7,3.358,5.891,3.358,3.306,0,4-1.911,4-3.514C160,188,156.4,188,154.667,188A31.58,31.58,0,0,0,150.8,188.475ZM132,200a2.107,2.107,0,0,1-1.333-.428c0-.945,2.819-2.281,5.546-3.573l.527-.249C134.737,198.653,132.757,200,132,200Zm9.333-23.872c0-2.794.867-2.794,1.333-2.794.943,0,1.333,0,1.333,2.667a21.379,21.379,0,0,1-1.061,4.164A8.193,8.193,0,0,1,141.333,176.127Zm1.022,14.331q.125-.348.242-.7c.495-1.484.94-2.818,1.337-4.018q.83.914,1.789,1.872c.25.25.87.813,1.7,1.517C145.776,189.484,144.027,189.928,142.356,190.458Zm14.978.694c0,.6,0,.848-1.237.855a9.827,9.827,0,0,1-2.24-1.279c.376-.042.654-.062.81-.062C156.637,190.666,157.2,190.859,157.333,191.152Z" transform="translate(169 338.334)"/><path class="c" d="M0,0,16,16H0Z" transform="translate(329 493)"/><path class="d" d="M0,0,11.25,11.25H0Z" transform="translate(331.375 495.375)"/></g></svg>