<svg xmlns="http://www.w3.org/2000/svg" width="19.603" height="19.603" viewBox="0 0 19.603 19.603"><defs><style>.a{fill:#2494ed;stroke:#fff;stroke-width:0.3px;}</style></defs><g transform="translate(0.15 0.15)"><g transform="translate(0)"><path class="a" d="M16.476,12.478a9.614,9.614,0,0,0-3.668-2.3,5.58,5.58,0,1,0-6.314,0A9.667,9.667,0,0,0,0,19.3H1.508a8.143,8.143,0,0,1,16.287,0H19.3A9.589,9.589,0,0,0,16.476,12.478ZM9.652,9.652A4.072,4.072,0,1,1,13.723,5.58,4.076,4.076,0,0,1,9.652,9.652Z" transform="translate(0)"/></g></g></svg>