<svg xmlns="http://www.w3.org/2000/svg" width="28" height="24" viewBox="0 0 28 24"><defs><style>.a{fill:#9dacbf;}</style></defs><path class="a" d="M27.185,3.2H19.742V2.4A2.434,2.434,0,0,0,17.281,0H10.719A2.434,2.434,0,0,0,8.258,2.4v.8H.821A.812.812,0,0,0,0,4V21.6A2.434,2.434,0,0,0,2.461,24H25.539A2.434,2.434,0,0,0,28,21.6V4.014a.787.787,0,0,0-.815-.814ZM9.9,2.4a.811.811,0,0,1,.82-.8h6.563a.811.811,0,0,1,.82.8v.8H9.9ZM26.042,4.8l-2.547,7.453a.817.817,0,0,1-.778.547H18.1V12a.81.81,0,0,0-.82-.8H10.719a.81.81,0,0,0-.82.8v.8H5.284a.817.817,0,0,1-.778-.547L1.959,4.8Zm-9.581,8v1.6H11.539V12.8Zm9.9,8.8a.811.811,0,0,1-.82.8H2.461a.811.811,0,0,1-.82-.8V8.93L2.95,12.759A2.453,2.453,0,0,0,5.284,14.4H9.9v.8a.81.81,0,0,0,.82.8h6.563a.81.81,0,0,0,.82-.8v-.8h4.614a2.453,2.453,0,0,0,2.334-1.641L26.36,8.93Zm0,0" transform="translate(0)"/></svg>