<svg xmlns="http://www.w3.org/2000/svg" width="18.385" height="24.514" viewBox="0 0 18.385 24.514"><defs><style>.a{fill:#2494ed;}</style></defs><g transform="translate(3.065 9.193)"><path class="a" d="M133.928,192.233a.768.768,0,0,0-1.085,0l-2.522,2.523-.99-.991a.766.766,0,0,0-1.083,1.083l1.532,1.532a.758.758,0,0,0,.541.225.769.769,0,0,0,.542-.224l3.064-3.064A.767.767,0,0,0,133.928,192.233Z" transform="translate(-128.024 -192.008)"/></g><g transform="translate(3.065 15.322)"><path class="a" d="M133.928,320.233a.768.768,0,0,0-1.085,0l-2.522,2.523-.99-.99a.766.766,0,1,0-1.083,1.083l1.532,1.532a.768.768,0,0,0,1.083,0l3.064-3.064A.767.767,0,0,0,133.928,320.233Z" transform="translate(-128.024 -320.008)"/></g><g transform="translate(10.725 10.725)"><path class="a" d="M291.83,224h-3.064a.766.766,0,0,0,0,1.532h3.064a.766.766,0,0,0,0-1.532Z" transform="translate(-288 -224)"/></g><g transform="translate(10.725 16.853)"><path class="a" d="M291.83,352h-3.064a.766.766,0,0,0,0,1.532h3.064a.766.766,0,0,0,0-1.532Z" transform="translate(-288 -352)"/></g><path class="a" d="M80.853,3.064H77.789V2.3a.766.766,0,0,0-.766-.766H75.361a2.3,2.3,0,0,0-4.336,0H69.362A.766.766,0,0,0,68.6,2.3v.766H65.532A1.535,1.535,0,0,0,64,4.6V22.982a1.535,1.535,0,0,0,1.532,1.532H80.853a1.535,1.535,0,0,0,1.532-1.532V4.6A1.535,1.535,0,0,0,80.853,3.064Zm-10.725,0h1.532a.766.766,0,0,0,.766-.766.766.766,0,0,1,1.532,0,.766.766,0,0,0,.766.766h1.532V4.6H70.128ZM80.853,22.982H65.532V4.6H68.6v.766a.766.766,0,0,0,.766.766h7.661a.766.766,0,0,0,.766-.766V4.6h3.064Z" transform="translate(-64)"/></svg>