<svg xmlns="http://www.w3.org/2000/svg" width="51" height="32.39" viewBox="0 0 51 32.39"><defs><style>.a{fill:#4ad295;}.b{fill:#546073;}</style></defs><g transform="translate(-54.087 -216)"><circle class="a" cx="3.238" cy="3.238" r="3.238" transform="translate(55.27 240.612)"/><circle class="a" cx="3.238" cy="3.238" r="3.238" transform="translate(77.291 240.612)"/><circle class="a" cx="3.238" cy="3.238" r="3.238" transform="translate(77.291 221.181)"/><path class="b" d="M42.414,29.147H30.127a4.366,4.366,0,0,1-8.439,0H8.585a4.366,4.366,0,1,1,0-2.245h13.1a4.367,4.367,0,0,1,8.44,0H42.414a4.366,4.366,0,1,1,0,2.245Zm2.1-1.123a2.121,2.121,0,1,0,2.121-2.12A2.123,2.123,0,0,0,44.512,28.023Zm-20.727,0a2.122,2.122,0,1,0,2.121-2.12A2.125,2.125,0,0,0,23.786,28.023Zm-21.541,0a2.121,2.121,0,1,0,2.12-2.12A2.123,2.123,0,0,0,2.245,28.023ZM19.158,13.306a8.365,8.365,0,1,1,13.5,0L25.908,23.326Zm.629-4.942a6.073,6.073,0,0,0,1.192,3.631l.058.079.011.022,4.859,7.213L30.767,12.1l.009-.021.058-.081a6.057,6.057,0,0,0,1.193-3.631,6.12,6.12,0,0,0-12.24,0Zm1.754-.107a4.366,4.366,0,1,1,4.365,4.367A4.371,4.371,0,0,1,21.541,8.257Zm2.245,0a2.122,2.122,0,1,0,2.121-2.12A2.125,2.125,0,0,0,23.786,8.257Z" transform="translate(54.087 216)"/></g></svg>