<svg xmlns="http://www.w3.org/2000/svg" width="16" height="15.333" viewBox="0 0 16 15.333"><defs><style>.a{fill:#546073;}</style></defs><path class="a" d="M5741.177-2011.692a.5.5,0,0,1-.344-.475v-3.092l2.711.926-1.808,2.462a.5.5,0,0,1-.4.2A.52.52,0,0,1,5741.177-2011.692Zm7.328-2-6.988-2.389,6.872-8.278-8.88,7.592-4.17-1.425a.5.5,0,0,1-.337-.436.5.5,0,0,1,.268-.481l15-7.833a.5.5,0,0,1,.521.037.5.5,0,0,1,.205.481l-1.833,12.333a.507.507,0,0,1-.235.354.508.508,0,0,1-.26.072A.51.51,0,0,1,5748.5-2013.694Z" transform="translate(-5735 2027)"/></svg>