<svg xmlns="http://www.w3.org/2000/svg" width="24.913" height="24" viewBox="0 0 24.913 24">
  <g id="investigation" transform="translate(0 502.585)">
    <path id="Path_816" data-name="Path 816" d="M12.45-502.552a6.672,6.672,0,0,0-4.239,2.307l-.243.292-3.84.024L.282-499.9l-.141.161L0-499.588l.01,10.1.015,10.1.136.131.131.136H5.169l.141-.161a.445.445,0,0,0,0-.652l-.141-.161L3.1-480.11l-2.073-.015v-18.782H7.345l-.146.351a6.532,6.532,0,0,0,2.146,7.675,7.746,7.746,0,0,0,2.02,1,6.89,6.89,0,0,0,1.888.268h.521v9.491H11.589a22.916,22.916,0,0,0-2.331.053.5.5,0,0,0,.024.925c.068.024,1.163.044,2.584.044a10.239,10.239,0,0,0,2.638-.088.406.406,0,0,0,.229-.253c.044-.127.058-1.45.058-5.266l0-5.1.2-.053a.685.685,0,0,1,.209-.039c.088.122,1.008,1.645,1.027,1.7s0,.088-.068.112a.657.657,0,0,0-.224.175c-.253.307-.341.146,2.3,4.419,1.329,2.156,2.492,4.015,2.584,4.127a2.256,2.256,0,0,0,2.142.725,2.358,2.358,0,0,0,1.815-3.052c-.122-.326-4.872-8.055-5.047-8.211a.5.5,0,0,0-.608,0,.68.68,0,0,1-.214.083c-.044-.054-1.046-1.7-1.046-1.723a1.775,1.775,0,0,1,.229-.282,6.747,6.747,0,0,0,1.48-3.013,7.566,7.566,0,0,0,.024-2.434,6.682,6.682,0,0,0-2.536-4.064,8.6,8.6,0,0,0-1.825-.934A7.444,7.444,0,0,0,12.45-502.552Zm1.674,1.042a5.538,5.538,0,0,1,3.373,1.981,6.289,6.289,0,0,1,1.027,2.059,5.7,5.7,0,0,1-.477,3.967,5.5,5.5,0,0,1-6.2,2.726,5.5,5.5,0,0,1-4.113-4.814,5.52,5.52,0,0,1,3.83-5.748A5.86,5.86,0,0,1,14.124-501.51Zm3.461,11.443c.234.38.433.72.448.754s-.136.166-.438.355a3.522,3.522,0,0,1-.482.268c-.068-.088-.954-1.562-.954-1.587s.1-.088.214-.151a4.688,4.688,0,0,0,.448-.277c.18-.122.253-.146.292-.107S17.356-490.443,17.585-490.068Zm3.368,3.981c.93,1.509,1.694,2.76,1.7,2.779s-.5.346-1.124.73l-1.129.7-1.684-2.73c-.93-1.5-1.689-2.75-1.694-2.774s.5-.35,1.11-.735,1.124-.7,1.124-.706S20.023-487.6,20.953-486.086Zm2.443,3.957a2.287,2.287,0,0,1,.5,1.168,1.167,1.167,0,0,1-.3.866,1.343,1.343,0,0,1-1.923.175,5.476,5.476,0,0,1-.706-1.071,23.7,23.7,0,0,1,2.215-1.416A1.176,1.176,0,0,1,23.4-482.129Z" transform="translate(0 0)" fill="#9dacbf"/>
    <path id="Path_817" data-name="Path 817" d="M184.624-458.576a4.43,4.43,0,0,0-3.446,4.01,4.57,4.57,0,0,0,.6,2.5,5.292,5.292,0,0,0,1.541,1.541,4.389,4.389,0,0,0,6.232-2,3.664,3.664,0,0,0,.34-1.653,3.1,3.1,0,0,0-.1-1.176,4.4,4.4,0,0,0-1.74-2.523,5.626,5.626,0,0,0-1.376-.651A6.91,6.91,0,0,0,184.624-458.576Zm1.808,1.021a3.44,3.44,0,0,1,2.338,2.236,2.346,2.346,0,0,1,.136,1.021,2.538,2.538,0,0,1-.126,1.006,3.37,3.37,0,0,1-2.114,2.182,3.914,3.914,0,0,1-2.98-.331,2.7,2.7,0,0,1-1.142-1.293l-.034-.131h3.568l.141-.141a.473.473,0,0,0,0-.69l-.141-.141h-3.9v-.433a3.125,3.125,0,0,1,.029-.51c.024-.068.243-.078,1.949-.078h1.92l.141-.141a.4.4,0,0,0,.141-.345.4.4,0,0,0-.141-.345l-.141-.141h-1.755c-.967,0-1.755-.019-1.755-.039a2.868,2.868,0,0,1,.627-.836,3.466,3.466,0,0,1,1.774-.924A4.8,4.8,0,0,1,186.433-457.556Z" transform="translate(-172.343 -41.817)" fill="#9dacbf"/>
    <path id="Path_818" data-name="Path 818" d="M41.766-360.787a.484.484,0,0,0,.053.86,6.465,6.465,0,0,0,1.638.058l1.458-.015.141-.16a.444.444,0,0,0,0-.651l-.141-.16-1.5-.015C42-360.88,41.907-360.875,41.766-360.787Z" transform="translate(-39.51 -134.814)" fill="#9dacbf"/>
    <path id="Path_819" data-name="Path 819" d="M41.784-319.787a.471.471,0,0,0-.194.6c.131.321.19.331,1.857.316l1.487-.015.141-.16a.444.444,0,0,0,0-.651l-.141-.16-1.5-.015C42.023-319.88,41.925-319.875,41.784-319.787Z" transform="translate(-39.529 -173.818)" fill="#9dacbf"/>
    <path id="Path_820" data-name="Path 820" d="M41.849-278.927a.488.488,0,0,0-.039.856c.141.087.267.092,2.377.092,2.44,0,2.435,0,2.586-.292a.38.38,0,0,0,0-.437c-.151-.292-.146-.292-2.562-.292A12.839,12.839,0,0,0,41.849-278.927Z" transform="translate(-39.555 -212.703)" fill="#9dacbf"/>
    <path id="Path_821" data-name="Path 821" d="M41.849-237.706a.488.488,0,0,0-.039.856c.146.092.267.092,3.811.083l3.665-.015.141-.16a.444.444,0,0,0,0-.651l-.141-.16-3.641-.01A28.249,28.249,0,0,0,41.849-237.706Z" transform="translate(-39.555 -251.928)" fill="#9dacbf"/>
    <path id="Path_822" data-name="Path 822" d="M41.849-196.927a.488.488,0,0,0-.039.856c.146.087.306.092,5.123.092,5.371,0,5.172.01,5.313-.248a.69.69,0,0,0,0-.53c-.131-.248-.015-.243-5.308-.243A50.36,50.36,0,0,0,41.849-196.927Z" transform="translate(-39.555 -290.711)" fill="#9dacbf"/>
    <path id="Path_823" data-name="Path 823" d="M41.849-155.927a.488.488,0,0,0-.039.855c.146.087.306.092,5.123.092,5.371,0,5.172.01,5.313-.248a.69.69,0,0,0,0-.53c-.131-.248-.015-.243-5.308-.243A50.354,50.354,0,0,0,41.849-155.927Z" transform="translate(-39.555 -329.715)" fill="#9dacbf"/>
    <path id="Path_824" data-name="Path 824" d="M138.262-40.815a.462.462,0,0,0-.262.428.413.413,0,0,0,.243.423.429.429,0,0,0,.544-.068A.476.476,0,0,0,138.262-40.815Z" transform="translate(-131.283 -439.253)" fill="#9dacbf"/>
  </g>
</svg>
