<svg xmlns="http://www.w3.org/2000/svg" width="16" height="16" viewBox="0 0 16 16"><defs><style>.a{fill:#546073;}</style></defs><path class="a" d="M-1422.9-4831.1a3.75,3.75,0,0,1,0-5.3l3.377-3.377c.009-.008.02-.014.029-.023a5.4,5.4,0,0,0,.234,2.412l-2.314,2.314a1.877,1.877,0,0,0,0,2.652,1.877,1.877,0,0,0,2.651,0l3.377-3.377a1.9,1.9,0,0,0,0-2.652,1.788,1.788,0,0,0-.236-.2,1.288,1.288,0,0,1,.236-1.13l.572-.572a3.545,3.545,0,0,1,.754.572,3.783,3.783,0,0,1,0,5.3l-3.377,3.377a3.738,3.738,0,0,1-2.652,1.1A3.738,3.738,0,0,1-1422.9-4831.1Zm5.366-5.366a3.785,3.785,0,0,1,0-5.3l3.134-3.134a3.75,3.75,0,0,1,5.3,0,3.75,3.75,0,0,1,0,5.3l-3.134,3.134c-.009.009-.02.015-.029.024a5.4,5.4,0,0,0-.234-2.412l2.072-2.071a1.877,1.877,0,0,0,0-2.652,1.877,1.877,0,0,0-2.652,0l-3.134,3.134a1.9,1.9,0,0,0,0,2.652,1.851,1.851,0,0,0,.236.2,1.287,1.287,0,0,1-.236,1.13l-.572.572A3.548,3.548,0,0,1-1417.536-4836.465Z" transform="translate(1424.001 4846.001)"/></svg>