<svg id="Group_30" data-name="Group 30" xmlns="http://www.w3.org/2000/svg" width="20" height="20" viewBox="0 0 20 20">
  <path id="Path_37" data-name="Path 37" d="M29.321,8.815a.774.774,0,0,0-.89-.618.75.75,0,0,0-.645.853l0,.013a8.244,8.244,0,0,1-7,9.46,8.526,8.526,0,0,1-9.867-6.713,8.244,8.244,0,0,1,7-9.46A8.775,8.775,0,0,1,25.664,4.9L22.222,6a.739.739,0,0,0-.492.942h0a.785.785,0,0,0,.983.472h0l4.662-1.49a.748.748,0,0,0,.532-.707V.745a.778.778,0,0,0-1.554,0V3.466a10.306,10.306,0,0,0-14.138.34,9.31,9.31,0,0,0,.354,13.554,10.306,10.306,0,0,0,14.138-.34A9.33,9.33,0,0,0,29.321,8.815Z" transform="translate(-9.461 0)" fill="#546073"/>
</svg>
