<svg xmlns="http://www.w3.org/2000/svg" width="16" height="16" viewBox="0 0 16 16"><defs><style>.a{fill:#4ad295;stroke:#2494ed;}.b{fill:#fff;}.c{stroke:none;}.d{fill:none;}</style></defs><g transform="translate(-555 -436)"><g transform="translate(0 57)"><g class="a" transform="translate(555 379)"><rect class="c" width="16" height="16" rx="2"/><rect class="d" x="0.5" y="0.5" width="15" height="15" rx="1.5"/></g></g><path class="b" d="M3.829,8.021a.51.51,0,0,1-.722,0L.224,5.138a.766.766,0,0,1,0-1.083l.361-.361a.766.766,0,0,1,1.083,0l1.8,1.8L8.332.63a.766.766,0,0,1,1.083,0l.361.361a.766.766,0,0,1,0,1.083Zm0,0" transform="translate(558 439.594)"/></g></svg>