<svg xmlns="http://www.w3.org/2000/svg" width="24.983" height="24" viewBox="0 0 24.983 24"><defs><style>.a{fill:#2494ed;}</style></defs><path class="a" d="M7181.3-2003a.428.428,0,0,1-.426-.429v-6.838a.426.426,0,0,1,.426-.427.429.429,0,0,1,.43.427v6.411h1.633v-10.459h-1.633v2.623a.43.43,0,0,1-.43.429.428.428,0,0,1-.426-.429v-2.623h-9.448a.428.428,0,0,1-.427-.429v-8.943a.426.426,0,0,1,.427-.427h9.448v-2.46a.426.426,0,0,1,.426-.427h2.489a.426.426,0,0,1,.427.427v2.46h3.422a.426.426,0,0,1,.429.427.427.427,0,0,1-.429.429h-15.783v8.087h20.578l2.612-4.043-2.612-4.044h-3.368a.43.43,0,0,1-.429-.429.428.428,0,0,1,.429-.427h3.6a.428.428,0,0,1,.357.195l2.889,4.472a.425.425,0,0,1,0,.464l-2.889,4.47a.425.425,0,0,1-.357.2h-8.449v10.886a.43.43,0,0,1-.429.429Zm.43-21.113h1.631v-2.031h-1.631Zm9.3,6.506v-1.141h-1.191v1.141a.427.427,0,0,1-.428.427.428.428,0,0,1-.429-.427v-3.214a.428.428,0,0,1,.429-.427.427.427,0,0,1,.428.427v1.217h1.191v-1.217a.426.426,0,0,1,.426-.427.427.427,0,0,1,.43.427v3.214a.427.427,0,0,1-.43.427A.426.426,0,0,1,7191.033-2017.606Zm-5.287.427a.427.427,0,0,1-.429-.427.428.428,0,0,1,.429-.429h.9a.377.377,0,0,0,.377-.377.377.377,0,0,0-.377-.375h-.1a1.232,1.232,0,0,1-1.229-1.23,1.23,1.23,0,0,1,1.229-1.23h.9a.427.427,0,0,1,.429.427.427.427,0,0,1-.429.427h-.9a.376.376,0,0,0-.374.377.376.376,0,0,0,.374.377h.1a1.23,1.23,0,0,1,1.232,1.228,1.233,1.233,0,0,1-1.232,1.232Zm-2.346-.427v-3.214a.428.428,0,0,1,.429-.427.426.426,0,0,1,.427.427v3.214a.426.426,0,0,1-.427.427A.428.428,0,0,1,7183.4-2017.606Zm-1.965.23-1.256-1.975v1.746a.427.427,0,0,1-.427.427.427.427,0,0,1-.43-.427v-3.214a.425.425,0,0,1,.308-.409.426.426,0,0,1,.481.18l1.259,1.975v-1.746a.426.426,0,0,1,.427-.427.428.428,0,0,1,.429.427v3.214a.425.425,0,0,1-.311.409.449.449,0,0,1-.118.017A.43.43,0,0,1,7181.436-2017.376Zm-4.516-.23v-3.214a.426.426,0,0,1,.427-.427.427.427,0,0,1,.429.427v3.214a.427.427,0,0,1-.429.427A.426.426,0,0,1,7176.92-2017.606Zm-3.395,0v-3.214a.426.426,0,0,1,.427-.427h1.27a.426.426,0,0,1,.427.427.426.426,0,0,1-.427.427h-.841v.687h.668a.427.427,0,0,1,.427.429.427.427,0,0,1-.427.427h-.668v1.245a.427.427,0,0,1-.429.427A.426.426,0,0,1,7173.525-2017.606Z" transform="translate(-7171 2027)"/></svg>