<svg xmlns="http://www.w3.org/2000/svg" width="20" height="20" viewBox="0 0 20 20"><defs><style>.a{fill:#2494ed;}</style></defs><path class="a" d="M.7,20a.7.7,0,0,1-.7-.7V14.652a.7.7,0,0,1,1.393,0v2.97L6.017,13A.7.7,0,0,1,7,13.982L2.379,18.607h2.97a.7.7,0,1,1,0,1.393Zm13.955,0a.7.7,0,0,1,0-1.393h2.97L13,13.982A.7.7,0,1,1,13.983,13l4.624,4.624v-2.97a.7.7,0,0,1,1.393,0V19.3a.7.7,0,0,1-.7.7ZM13.137,6.864a.7.7,0,0,1,0-.985l4.486-4.486h-2.97a.7.7,0,0,1,0-1.393H19.3a.7.7,0,0,1,.7.7V5.348a.7.7,0,1,1-1.393,0V2.378L14.122,6.864a.7.7,0,0,1-.985,0Zm-7.257,0L1.393,2.378v2.97A.7.7,0,0,1,0,5.348V.7A.7.7,0,0,1,.7,0H5.349a.7.7,0,0,1,0,1.393H2.378L6.864,5.879a.7.7,0,0,1-.985.985Z"/></svg>