<svg xmlns="http://www.w3.org/2000/svg" width="16" height="16" viewBox="0 0 16 16"><defs><style>.a{fill:#546073;}</style></defs><path class="a" d="M-1422.621-4830a1.379,1.379,0,0,1-1.379-1.379V-4838a.827.827,0,0,1,.828-.827.827.827,0,0,1,.828.827v6.345h12.69V-4838a.827.827,0,0,1,.828-.827.827.827,0,0,1,.827.827v6.621a1.379,1.379,0,0,1-1.379,1.379Zm5.793-4.138v-9.036l-1.708,1.708h0a.827.827,0,0,1-1.17,0,.827.827,0,0,1,0-1.17l3.121-3.121a.828.828,0,0,1,1.17,0l3.121,3.121a.827.827,0,0,1,0,1.17.826.826,0,0,1-1.17,0l-1.708-1.708v9.036a.828.828,0,0,1-.828.828A.828.828,0,0,1-1416.828-4834.138Z" transform="translate(1424 4846)"/></svg>