<svg xmlns="http://www.w3.org/2000/svg" width="20" height="20" viewBox="0 0 20 20"><defs><style>.a{fill:#546073;}</style></defs><path class="a" d="M5735.293-968.22a.782.782,0,0,1-.181-.854l1.142-2.823a6.06,6.06,0,0,1-1.2-3.622,6.317,6.317,0,0,1,2.922-5.258,7.585,7.585,0,0,1,2.5-4.935A8.88,8.88,0,0,1,5746.5-988a8.879,8.879,0,0,1,6.023,2.288,7.549,7.549,0,0,1,2.531,5.607,7.781,7.781,0,0,1-.087,1.126.782.782,0,0,1-.888.658.783.783,0,0,1-.658-.889,6.253,6.253,0,0,0,.07-.895c0-3.492-3.137-6.333-6.992-6.333s-6.994,2.841-6.994,6.333a6.769,6.769,0,0,0,6.994,6.334,7.536,7.536,0,0,0,2.973-.6.785.785,0,0,1,.622,0l2.733,1.2-.921-2.275a.783.783,0,0,1,.432-1.018.781.781,0,0,1,1.017.431l1.642,4.06a.784.784,0,0,1-.181.854.783.783,0,0,1-.544.22.776.776,0,0,1-.314-.066l-4.192-1.848a8.947,8.947,0,0,1-1.623.45,6.724,6.724,0,0,1-2.364,2.3,7.389,7.389,0,0,1-3.676,1c-.018,0-.037,0-.058,0a7.431,7.431,0,0,1-2.605-.465l-3.291,1.451a.778.778,0,0,1-.314.066A.783.783,0,0,1,5735.293-968.22Zm1.325-7.3a4.555,4.555,0,0,0,1.125,2.987.782.782,0,0,1,.13.8l-.59,1.46,1.83-.806a.773.773,0,0,1,.621,0,5.851,5.851,0,0,0,2.283.466h.031a5.739,5.739,0,0,0,4.01-1.6,8.735,8.735,0,0,1-5.684-2.4,7.887,7.887,0,0,1-2.311-4.224A4.647,4.647,0,0,0,5736.618-975.519Zm12.188-4.552a.78.78,0,0,1,.781-.78.781.781,0,0,1,.782.78.781.781,0,0,1-.782.782A.781.781,0,0,1,5748.806-980.071Zm-3.126,0a.781.781,0,0,1,.782-.78.781.781,0,0,1,.782.78.781.781,0,0,1-.782.782A.782.782,0,0,1,5745.68-980.071Zm-3.124,0a.78.78,0,0,1,.78-.78.782.782,0,0,1,.782.78.782.782,0,0,1-.782.782A.78.78,0,0,1,5742.556-980.071Z" transform="translate(-5735.056 988)"/></svg>