<svg xmlns="http://www.w3.org/2000/svg" width="17.188" height="20" viewBox="0 0 17.188 20"><defs><style>.a{fill:#546073;}</style></defs><path class="a" d="M5742.948-968.343l-1.956-2.88a8.592,8.592,0,0,1-5.992-8.188,8.586,8.586,0,0,1,8.593-8.588,8.586,8.586,0,0,1,8.594,8.588,8.592,8.592,0,0,1-5.992,8.188l-1.956,2.88a.781.781,0,0,1-.646.343A.779.779,0,0,1,5742.948-968.343Zm-6.385-11.069a7.029,7.029,0,0,0,5.131,6.767.779.779,0,0,1,.436.313l1.463,2.158,1.464-2.158a.783.783,0,0,1,.436-.313,7.03,7.03,0,0,0,5.131-6.767,7.036,7.036,0,0,0-7.031-7.025A7.036,7.036,0,0,0,5736.563-979.412Zm6.181,3.276v-4.206c0-.309.353-.519.849-.519.476,0,.861.209.861.519v4.206c0,.265-.385.53-.861.53C5743.1-975.605,5742.744-975.87,5742.744-976.135Zm-.055-6.535a.854.854,0,0,1,.9-.784.851.851,0,0,1,.895.784.861.861,0,0,1-.895.795A.863.863,0,0,1,5742.689-982.67Z" transform="translate(-5735 988)"/></svg>