<svg xmlns="http://www.w3.org/2000/svg" width="24" height="17" viewBox="0 0 24 17"><defs><style>.a{fill:#2494ed;}</style></defs><path class="a" d="M4.5,17a2.5,2.5,0,0,1-2.458-2.042A2.5,2.5,0,0,1,0,12.5V2.5A2.5,2.5,0,0,1,2.5,0h17a2.5,2.5,0,0,1,2.458,2.042A2.5,2.5,0,0,1,24,4.5v10A2.5,2.5,0,0,1,21.5,17Zm0-1h17A1.5,1.5,0,0,0,23,14.5V4.5a1.5,1.5,0,0,0-1-1.415V12.5A2.5,2.5,0,0,1,19.5,15H3.085A1.5,1.5,0,0,0,4.5,16ZM1,2.5v10A1.5,1.5,0,0,0,2.5,14h17A1.5,1.5,0,0,0,21,12.5V2.5A1.5,1.5,0,0,0,19.5,1H2.5A1.5,1.5,0,0,0,1,2.5ZM7.5,13a5.506,5.506,0,1,1,3.92-1.645q-.016.019-.034.037A5.464,5.464,0,0,1,7.515,13ZM6.181,9.282a3.224,3.224,0,0,0-1.623,1.623,4.606,4.606,0,0,0,5.884,0A3.224,3.224,0,0,0,7.556,9H7.442A3.213,3.213,0,0,0,6.181,9.282Zm4.98.835a4.5,4.5,0,1,0-7.324,0A4.222,4.222,0,0,1,5.818,8.35a2.5,2.5,0,1,1,3.364,0A4.228,4.228,0,0,1,11.162,10.117ZM7.525,8a1.5,1.5,0,1,0-.05,0h.05ZM14.5,11h-.019a.5.5,0,0,1-.01-1h5.058a.5.5,0,0,1,.01,1H14.5Zm0-3h-.019A.5.5,0,0,1,14.5,7h5.029a.5.5,0,0,1,0,1H14.5Zm0-3a.5.5,0,0,1-.5-.5q0-.008,0-.016A.5.5,0,0,1,14.5,4h5a.5.5,0,0,1,.5.494s0,0,0,.006a.5.5,0,0,1-.474.5H14.5Z" transform="translate(0 0)"/></svg>