<svg xmlns="http://www.w3.org/2000/svg" width="18" height="10.576" viewBox="0 0 18 10.576"><defs><style>.a{fill:#546073;}</style></defs><path class="a" d="M-1434.03-5031.424a1.975,1.975,0,0,1-1.969-1.969v-6.637a1.975,1.975,0,0,1,1.969-1.969h8.212a1.963,1.963,0,0,1,1.969,1.969v6.637a1.975,1.975,0,0,1-1.969,1.969Zm14.852-1.077a1.18,1.18,0,0,1-.594-.163l-3.092-1.773v-4.569l3.072-1.772a1.01,1.01,0,0,1,.335-.138,1.186,1.186,0,0,1,1.457,1.142v6.086a1.2,1.2,0,0,1-.158.591,1.185,1.185,0,0,1-1.021.6Z" transform="translate(1435.999 5042)"/></svg>