<svg xmlns="http://www.w3.org/2000/svg" width="65" height="64" viewBox="0 0 65 64"><defs><style>.a{fill:#eff3f6;}.b{fill:#fff;}.c{fill:#9dacbf;}.d{fill:#2494ed;stroke:#eff3f6;stroke-width:2px;}</style></defs><g transform="translate(-280 -630)"><path class="a" d="M8,0H48.25L65,16.465V56a8,8,0,0,1-8,8H8a8,8,0,0,1-8-8V8A8,8,0,0,1,8,0Z" transform="translate(280 630)"/><path class="b" d="M0,0,16,16H0Z" transform="translate(329 630)"/><path class="c" d="M0,0,11.25,11.25H0Z" transform="translate(331.375 632.375)"/><g transform="translate(176.188 449.873)"><path class="d" d="M143.125,215.644l-4.5-13.489H135l-4.5,13.489-5.33-15.517-4.357,1.5,7.92,23.055h3.612l4.469-13.4,4.469,13.4h3.612l7.92-23.055-4.357-1.5Z" transform="translate(0 0)"/></g></g></svg>